<svg width="18" height="18" viewBox="0 0 18 18" fill="none" xmlns="http://www.w3.org/2000/svg">
<g clip-path="url(#clip0)">
<rect x="-157" y="-4961" width="1440" height="5189" fill="white"/>
<rect x="-157" y="-335.225" width="1440" height="563.12" fill="#F8F8F8"/>
<circle cx="9.80006" cy="9.38051" r="16.7999" fill="#F53838"/>
<path d="M9.8 -7.41943C0.521502 -7.41943 -7 0.102068 -7 9.38057C-7 18.6591 0.521502 26.1806 9.8 26.1806C19.0785 26.1806 26.6 18.6591 26.6 9.38057C26.6 0.102068 19.0785 -7.41943 9.8 -7.41943ZM13.7795 4.19007H11.2543C10.955 4.19007 10.6225 4.58382 10.6225 5.10707V6.93057H13.7813L13.3035 9.53107H10.6225V17.3378H7.64225V9.53107H4.9385V6.93057H7.64225V5.40107C7.64225 3.20657 9.16475 1.42332 11.2543 1.42332H13.7795V4.19007Z" fill="white"/>
</g>
<defs>
<clipPath id="clip0">
<rect x="-157" y="-4961" width="1440" height="5189" fill="white"/>
</clipPath>
</defs>
</svg>
