<svg width="18" height="18" viewBox="0 0 18 18" fill="none" xmlns="http://www.w3.org/2000/svg">
<g clip-path="url(#clip0)">
<rect x="-207" y="-4928" width="1440" height="5189" fill="white"/>
<rect x="-207" y="-302.225" width="1440" height="563.12" fill="#F8F8F8"/>
<circle cx="8.80006" cy="8.79994" r="16.7999" fill="#F53838"/>
<path d="M14.05 8.8C14.05 10.1924 13.4969 11.5277 12.5123 12.5123C11.5277 13.4969 10.1924 14.05 8.8 14.05C7.40762 14.05 6.07226 13.4969 5.08769 12.5123C4.10312 11.5277 3.55 10.1924 3.55 8.8C3.55 8.50075 3.5815 8.2085 3.63575 7.925H1.8V14.9198C1.8 15.4063 2.19375 15.8 2.68025 15.8H14.9215C15.1547 15.7995 15.3781 15.7066 15.5428 15.5416C15.7075 15.3765 15.8 15.1529 15.8 14.9198V7.925H13.9643C14.0185 8.2085 14.05 8.50075 14.05 8.8ZM8.8 12.3C9.25974 12.2999 9.71496 12.2092 10.1397 12.0332C10.5644 11.8571 10.9502 11.5992 11.2752 11.274C11.6002 10.9488 11.858 10.5628 12.0339 10.138C12.2097 9.71326 12.3001 9.25799 12.3 8.79825C12.2999 8.33851 12.2092 7.88329 12.0332 7.45859C11.8571 7.03389 11.5992 6.64802 11.274 6.32302C10.9488 5.99801 10.5628 5.74023 10.138 5.56441C9.71326 5.38858 9.25799 5.29814 8.79825 5.29825C7.86976 5.29848 6.97939 5.66755 6.32302 6.32425C5.66664 6.98096 5.29802 7.87151 5.29825 8.8C5.29848 9.72849 5.66755 10.6189 6.32425 11.2752C6.98096 11.9316 7.87151 12.3002 8.8 12.3ZM13 5.125H15.0983C15.2377 5.125 15.3714 5.06975 15.4701 4.97134C15.5688 4.87293 15.6245 4.7394 15.625 4.6V2.50175C15.625 2.36205 15.5695 2.22807 15.4707 2.12928C15.3719 2.0305 15.238 1.975 15.0983 1.975H13C12.8603 1.975 12.7263 2.0305 12.6275 2.12928C12.5287 2.22807 12.4733 2.36205 12.4733 2.50175V4.6C12.475 4.88875 12.7113 5.125 13 5.125ZM8.8 -8C4.34437 -8 0.0712185 -6.23001 -3.07939 -3.07939C-6.23001 0.0712185 -8 4.34437 -8 8.8C-8 13.2556 -6.23001 17.5288 -3.07939 20.6794C0.0712185 23.83 4.34437 25.6 8.8 25.6C11.0062 25.6 13.1908 25.1655 15.2291 24.3212C17.2674 23.4769 19.1194 22.2394 20.6794 20.6794C22.2394 19.1194 23.4769 17.2674 24.3212 15.2291C25.1655 13.1908 25.6 11.0062 25.6 8.8C25.6 6.59379 25.1655 4.40919 24.3212 2.37092C23.4769 0.332649 22.2394 -1.51937 20.6794 -3.07939C19.1194 -4.63942 17.2674 -5.8769 15.2291 -6.72118C13.1908 -7.56546 11.0062 -8 8.8 -8ZM17.55 15.6058C17.55 16.675 16.675 17.55 15.6058 17.55H1.99425C0.925001 17.55 0.0500011 16.675 0.0500011 15.6058V1.99425C0.0500011 0.925001 0.925001 0.0500011 1.99425 0.0500011H15.6058C16.675 0.0500011 17.55 0.925001 17.55 1.99425V15.6058Z" fill="white"/>
</g>
<defs>
<clipPath id="clip0">
<rect x="-207" y="-4928" width="1440" height="5189" fill="white"/>
</clipPath>
</defs>
</svg>
