<svg width="18" height="18" viewBox="0 0 18 18" fill="none" xmlns="http://www.w3.org/2000/svg">
<g clip-path="url(#clip0)">
<rect x="-212" y="-4962" width="1440" height="5189" fill="white"/>
<rect x="-212" y="-336.225" width="1440" height="563.12" fill="#F8F8F8"/>
<circle cx="8.40004" cy="8.38051" r="16.7999" fill="#F53838"/>
<path d="M8.39998 -8.41943C-0.878523 -8.41943 -8.40002 -0.897932 -8.40002 8.38057C-8.40002 17.6591 -0.878523 25.1806 8.39998 25.1806C17.6785 25.1806 25.2 17.6591 25.2 8.38057C25.2 -0.897932 17.6785 -8.41943 8.39998 -8.41943ZM15.2337 5.34257C15.2407 5.48607 15.2425 5.62957 15.2425 5.76957C15.2425 10.1446 11.9157 15.1863 5.82923 15.1863C4.03074 15.1893 2.26967 14.6728 0.757727 13.6988C1.01498 13.7303 1.27923 13.7426 1.54698 13.7426C3.09748 13.7426 4.52373 13.2158 5.65598 12.3268C4.96598 12.3133 4.2974 12.0848 3.74342 11.6732C3.18944 11.2617 2.77766 10.6875 2.56548 10.0308C3.061 10.125 3.57147 10.1053 4.05823 9.97307C3.30931 9.82163 2.63582 9.41583 2.15197 8.82448C1.66811 8.23314 1.40366 7.49264 1.40348 6.72857V6.68832C1.84973 6.93507 2.36073 7.08557 2.90323 7.10307C2.20112 6.63569 1.7041 5.91774 1.51381 5.09605C1.32351 4.27436 1.45432 3.41101 1.87948 2.68257C2.71065 3.70457 3.74718 4.54063 4.92197 5.13661C6.09676 5.7326 7.38362 6.07523 8.69923 6.14232C8.53197 5.43236 8.60396 4.68703 8.904 4.0222C9.20403 3.35737 9.71532 2.8103 10.3584 2.46603C11.0014 2.12176 11.7402 1.99958 12.4598 2.11849C13.1794 2.2374 13.8396 2.59074 14.3377 3.12357C15.0783 2.97705 15.7884 2.70541 16.4377 2.32032C16.1909 3.08705 15.6742 3.73813 14.9835 4.15257C15.6395 4.07356 16.28 3.8972 16.884 3.62932C16.4403 4.29413 15.8815 4.87433 15.2337 5.34257V5.34257Z" fill="white"/>
</g>
<defs>
<clipPath id="clip0">
<rect x="-212" y="-4962" width="1440" height="5189" fill="white"/>
</clipPath>
</defs>
</svg>
