<svg width="50" height="50" fill="none" xmlns="http://www.w3.org/2000/svg"><path d="M25 50c13.807 0 25-11.193 25-25S38.807 0 25 0 0 11.193 0 25s11.193 25 25 25z" fill="url(#paint0_linear)"/><path d="M36.593 12.98c-2.987.379-6.102.366-9.236.067-4.377-.337-10.774-2.357-13.131 1.684-3.787 6.468-1.92 14.75-1.037 22.078l13.158 13.155c12.733-.676 22.938-10.88 23.616-23.613l-13.37-13.37z" fill="#000" fill-opacity=".14"/><path d="M30.784 10.69H19.216c-4.701 0-8.526 3.825-8.526 8.526v11.568c0 4.701 3.825 8.526 8.526 8.526h11.568c4.7 0 8.526-3.825 8.526-8.526V19.216c0-4.701-3.825-8.526-8.526-8.526zm5.647 20.094a5.647 5.647 0 01-5.647 5.647H19.216a5.647 5.647 0 01-5.647-5.647V19.216a5.647 5.647 0 015.647-5.647h11.568a5.647 5.647 0 015.647 5.647v11.568z" fill="#fff"/><path d="M25 17.598c-4.081 0-7.402 3.32-7.402 7.402 0 4.081 3.32 7.402 7.402 7.402 4.081 0 7.402-3.32 7.402-7.402 0-4.081-3.32-7.402-7.402-7.402zm0 11.925a4.523 4.523 0 110-9.046 4.523 4.523 0 010 9.046z" fill="#fff"/><path d="M34.19 17.654a1.774 1.774 0 11-3.548 0 1.774 1.774 0 013.548 0z" fill="#D1D1D1"/><path d="M30.784 10.69h-5.84v2.88h5.84a5.647 5.647 0 015.647 5.646v11.568a5.647 5.647 0 01-5.647 5.647h-5.84v2.879h5.84c4.7 0 8.526-3.825 8.526-8.526V19.216c0-4.701-3.825-8.526-8.526-8.526z" fill="#D1D1D1"/><path d="M25 17.598l-.056.002v2.879l.056-.002a4.523 4.523 0 010 9.046l-.056-.001V32.4l.056.001c4.081 0 7.402-3.32 7.402-7.402 0-4.081-3.32-7.402-7.402-7.402z" fill="#D1D1D1"/><defs><linearGradient id="paint0_linear" x1="1.5" y1="61" x2="40" y2="9" gradientUnits="userSpaceOnUse"><stop stop-color="#FDF497"/><stop offset=".156" stop-color="#FDF497"/><stop offset=".396" stop-color="#FD5949"/><stop offset=".62" stop-color="#D6249F"/><stop offset=".917" stop-color="#285AEB"/></linearGradient></defs></svg>