<svg width="39" height="39" fill="none" xmlns="http://www.w3.org/2000/svg"><path d="M.623 17.985L14.708 3.9a2.118 2.118 0 011.509-.623 2.12 2.12 0 011.51.623l1.278 1.28c.402.4.623.937.623 1.509a2.16 2.16 0 01-.623 1.527L10.79 16.45h26.104c1.177 0 2.107.922 2.107 2.099v1.808c0 1.177-.93 2.192-2.107 2.192H10.695l8.31 8.28c.402.402.623.924.623 1.496 0 .57-.221 1.1-.623 1.502l-1.279 1.275a2.117 2.117 0 01-1.51.62 2.12 2.12 0 01-1.509-.623L.623 21.014A2.12 2.12 0 010 19.5a2.12 2.12 0 01.623-1.515z" fill="#DEE3EF"/></svg>