<svg width="50" height="50" fill="none" xmlns="http://www.w3.org/2000/svg"><g clip-path="url(#clip0)" fill="#DEE3EF"><path d="M24.961 0c-8.11 0-14.707 6.598-14.707 14.707v20.586C10.254 43.403 16.85 50 24.96 50s14.707-6.597 14.707-14.707V14.707C39.668 6.597 33.071 0 24.961 0zm11.707 35.293C36.668 41.748 31.416 47 24.961 47c-6.455 0-11.707-5.252-11.707-11.707V14.707C13.254 8.252 18.506 3 24.96 3c6.455 0 11.707 5.252 11.707 11.707v20.586z"/><path d="M24.962 9.946a1.5 1.5 0 00-1.5 1.5v6.904a1.5 1.5 0 003 0v-6.904a1.5 1.5 0 00-1.5-1.5z"/></g><defs><clipPath id="clip0"><path fill="#fff" d="M0 0h50v50H0z"/></clipPath></defs></svg>