<svg width="50" height="50" fill="none" xmlns="http://www.w3.org/2000/svg"><path d="M25 50c13.807 0 25-11.193 25-25S38.807 0 25 0 0 11.193 0 25s11.193 25 25 25z" fill="#6F3FAA"/><path d="M35.846 13.715c-6.085-1.47-12.181-3.189-18.422-1.005-4.04 1.515-4.04 5.893-3.872 9.596 0 1.01-1.178 2.357-.673 3.536 1.01 3.367 1.852 6.734 5.387 8.417.505.337 0 1.01.337 1.515-.169 0-.505.169-.505.337 0 .807.362 2.041.121 2.837l10.743 10.738c11.044-1.759 19.676-10.749 20.89-21.965L35.846 13.715z" fill="#512D84"/><path d="M38.225 17.57l-.008-.032c-.668-2.7-3.68-5.598-6.445-6.201l-.031-.007a35.817 35.817 0 00-13.481 0l-.032.007c-2.765.603-5.777 3.5-6.446 6.2l-.007.034a26.387 26.387 0 000 11.367l.008.033c.64 2.585 3.427 5.35 6.09 6.11v3.014c0 1.092 1.33 1.627 2.085.84l3.054-3.175a35.65 35.65 0 001.988.058c2.252 0 4.505-.213 6.74-.64l.032-.006c2.766-.603 5.777-3.5 6.445-6.201l.008-.033a26.39 26.39 0 000-11.367zm-2.417 10.821c-.446 1.762-2.732 3.952-4.549 4.357a33.385 33.385 0 01-7.17.58.169.169 0 00-.127.05l-2.23 2.29-2.372 2.434a.278.278 0 01-.478-.192v-4.993a.172.172 0 00-.14-.169h-.002c-1.816-.405-4.102-2.595-4.549-4.357a23.947 23.947 0 010-10.273c.447-1.762 2.733-3.952 4.55-4.357 4.153-.79 8.365-.79 12.518 0 1.818.405 4.103 2.595 4.55 4.357a23.92 23.92 0 010 10.273z" fill="#fff"/><path d="M28.952 30.696c-.28-.085-.545-.142-.793-.244-2.561-1.063-4.919-2.434-6.786-4.536-1.062-1.195-1.893-2.544-2.596-3.972-.333-.677-.614-1.38-.9-2.08-.26-.637.124-1.296.528-1.776.38-.451.869-.796 1.398-1.05.413-.199.82-.085 1.122.266.653.757 1.252 1.552 1.737 2.43.298.54.216 1.2-.324 1.567-.132.089-.252.194-.374.295a1.226 1.226 0 00-.282.297.815.815 0 00-.054.715c.666 1.832 1.79 3.257 3.634 4.024.296.123.592.266.932.226.57-.066.754-.69 1.152-1.017.39-.319.889-.323 1.309-.057.42.266.827.551 1.232.84.398.283.793.56 1.16.883.352.31.474.717.275 1.139-.363.771-.892 1.413-1.654 1.823-.216.115-.473.152-.716.227-.28-.085.243-.075 0 0zm-3.945-14.541c3.35.094 6.103 2.318 6.692 5.63.1.565.137 1.142.181 1.715.02.24-.117.47-.377.473-.269.003-.39-.222-.407-.463-.035-.477-.059-.956-.124-1.428-.347-2.496-2.337-4.561-4.822-5.004-.374-.067-.756-.084-1.135-.124-.24-.025-.553-.04-.606-.337-.044-.25.166-.448.404-.461.064-.004.13-.001.194 0 3.35.093-.065-.001 0 0z" fill="#fff"/><path d="M30.1 22.756c-.007.042-.01.14-.034.233-.089.336-.599.378-.716.039a1.01 1.01 0 01-.04-.324c-.002-.71-.156-1.418-.514-2.036a3.79 3.79 0 00-1.589-1.49 4.569 4.569 0 00-1.266-.39c-.191-.031-.384-.05-.576-.077-.233-.032-.357-.18-.346-.41.01-.214.168-.369.402-.355.768.043 1.511.21 2.195.571 1.39.737 2.184 1.899 2.416 3.45.01.07.027.14.032.21.014.175.022.35.035.579-.006.042-.013-.23 0 0z" fill="#fff"/><path d="M28.015 22.675c-.28.005-.43-.15-.46-.407-.02-.18-.035-.36-.078-.535a1.506 1.506 0 00-.556-.872 1.458 1.458 0 00-.453-.219c-.205-.06-.419-.043-.624-.093-.222-.055-.346-.235-.31-.444a.402.402 0 01.424-.324c1.3.094 2.228.766 2.36 2.295.01.108.02.222-.004.325a.333.333 0 01-.3.274c-.28.005.128-.009 0 0z" fill="#fff"/><path d="M38.225 17.57l-.008-.032c-.374-1.514-1.485-3.09-2.877-4.289l-1.88 1.667c1.118.891 2.076 2.126 2.349 3.201a23.919 23.919 0 010 10.274c-.447 1.762-2.733 3.952-4.55 4.357a33.385 33.385 0 01-7.17.579.17.17 0 00-.127.051l-2.23 2.29-2.372 2.434a.278.278 0 01-.478-.192v-4.994a.172.172 0 00-.14-.168h-.001c-1.033-.23-2.216-1.037-3.128-2.014l-1.858 1.647c1.16 1.262 2.657 2.283 4.117 2.7v3.014c0 1.092 1.33 1.627 2.086.84l3.054-3.175c.663.037 1.325.058 1.988.058 2.252 0 4.505-.213 6.74-.64l.032-.006c2.766-.603 5.777-3.5 6.445-6.2l.008-.034a26.392 26.392 0 000-11.367z" fill="#D1D1D1"/><path d="M28.952 30.696c.243-.075-.28-.085 0 0z" fill="#fff"/><path d="M31.047 27.506c-.367-.323-.762-.6-1.16-.883a27.198 27.198 0 00-1.232-.84c-.42-.266-.918-.261-1.308.057-.4.327-.584.951-1.153 1.018-.34.04-.636-.104-.931-.226a6.026 6.026 0 01-2.647-2.106l-1.383 1.226c.047.054.092.11.14.164 1.867 2.102 4.225 3.473 6.786 4.535.248.103.514.16.793.245-.28-.085.243-.075 0 0 .243-.075.5-.113.716-.228.762-.41 1.291-1.052 1.654-1.823.199-.421.078-.828-.275-1.139z" fill="#D1D1D1"/><path d="M25.015 16.155zm-.008 0h.009c.186.007 3.21.09-.009 0z" fill="#fff"/><path d="M29.813 18.148l-.59.523a5.916 5.916 0 011.748 3.41c.066.473.09.952.125 1.429.017.24.138.465.407.462.26-.003.396-.232.377-.473-.045-.573-.08-1.15-.18-1.714a6.727 6.727 0 00-1.887-3.637zm.218 3.819c-.168-1.131-.637-2.054-1.417-2.757l-.588.521c.305.27.567.587.77.937.358.617.512 1.326.513 2.036 0 .108.006.223.04.324.118.34.628.297.717-.04.024-.092.027-.19.033-.232-.006.042-.014-.23 0 0-.014-.23-.022-.404-.035-.579-.005-.07-.022-.14-.033-.21z" fill="#D1D1D1"/><path d="M30.099 22.756c-.014-.23-.006.041 0 0zm-2.086-.082l.012-.003-.046.001.034.002zm.002.001l-.036-.002a.52.52 0 00.036.002zm.012-.004l-.012.003c.03-.002.028-.003.012-.003z" fill="#fff"/><path d="M27.423 20.266l-.598.53c.033.02.065.041.096.064.29.21.472.529.556.872.043.175.059.356.079.535.027.246.167.397.423.406l.049-.001a.332.332 0 00.287-.271c.024-.104.013-.218.003-.326-.074-.855-.398-1.441-.895-1.809z" fill="#D1D1D1"/></svg>