<svg width="52" height="56" viewBox="0 0 52 56" fill="none" xmlns="http://www.w3.org/2000/svg">
<g clip-path="url(#clip0)">
<path d="M27.2567 55.5467L39.4984 46.12C40.5384 45.3267 41.1667 44.0433 41.1667 42.6667C41.1667 39.19 37.5267 37.1833 34.905 39.19L26 46.0267L17.095 39.19C14.4734 37.16 10.8334 39.19 10.8334 42.6667C10.8334 44.0433 11.4617 45.35 12.5017 46.1433L24.7434 55.57C25.5017 56.13 26.4984 56.13 27.2567 55.5467Z" fill="white"/>
<path d="M27.4233 27.1647L39.665 17.7613C40.705 16.9447 41.3333 15.6613 41.3333 14.2847C41.3333 10.808 37.6933 8.77799 35.0716 10.808L26.1667 17.6447L17.2617 10.808C14.64 8.77799 11 10.808 11 14.2847C11 15.6613 11.6283 16.968 12.6683 17.7613L24.91 27.188C25.6683 27.748 26.665 27.748 27.4233 27.1647Z" fill="white"/>
</g>
<defs>
<clipPath id="clip0">
<rect width="56" height="52" fill="white" transform="translate(52) rotate(90)"/>
</clipPath>
</defs>
</svg>
