<svg width="41" height="35" viewBox="0 0 41 35" fill="none" xmlns="http://www.w3.org/2000/svg">
<path d="M36.9 30.2727H32.8V11.3523L20.5 19.461L8.2 11.3523V30.2727H4.1V4.32468H6.56L20.5 13.5146L34.44 4.32468H36.9V30.2727ZM36.9 0H4.1C1.8245 0 0 1.92448 0 4.32468V30.2727C0 31.4197 0.431963 32.5197 1.20086 33.3307C1.96976 34.1418 3.01261 34.5974 4.1 34.5974H36.9C37.9874 34.5974 39.0302 34.1418 39.7991 33.3307C40.568 32.5197 41 31.4197 41 30.2727V4.32468C41 3.1777 40.568 2.0777 39.7991 1.26667C39.0302 0.455634 37.9874 0 36.9 0Z" fill="white"/>
</svg>
