<svg width="41" height="35" viewBox="0 0 41 35" fill="none" xmlns="http://www.w3.org/2000/svg">
<path d="M20.5 13.0086C19.4945 13.0086 18.5115 13.2602 17.6755 13.7316C16.8394 14.203 16.1878 14.8731 15.803 15.657C15.4182 16.4409 15.3175 17.3035 15.5137 18.1357C15.7099 18.9679 16.1941 19.7323 16.9051 20.3323C17.6161 20.9322 18.522 21.3408 19.5082 21.5064C20.4944 21.6719 21.5166 21.5869 22.4456 21.2622C23.3745 20.9375 24.1686 20.3876 24.7272 19.6821C25.2858 18.9766 25.584 18.1472 25.584 17.2987C25.584 16.7353 25.4525 16.1775 25.197 15.657C24.9415 15.1365 24.567 14.6635 24.0949 14.2652C23.6228 13.8668 23.0624 13.5508 22.4456 13.3352C21.8287 13.1196 21.1676 13.0086 20.5 13.0086ZM40.8565 8.77044C40.8457 7.43457 40.5542 6.11089 39.9955 4.86094C39.584 3.94628 38.9474 3.11566 38.1276 2.42387C37.3078 1.73208 36.3234 1.19485 35.2395 0.847637C33.7582 0.376184 32.1896 0.130192 30.6065 0.121091C27.962 -1.15997e-07 27.183 0 20.5 0C13.817 0 13.038 -1.15997e-07 10.3935 0.121091C8.8104 0.130192 7.24177 0.376184 5.7605 0.847637C4.67658 1.19485 3.69224 1.73208 2.87243 2.42387C2.05262 3.11566 1.41597 3.94628 1.0045 4.86094C0.445801 6.11089 0.154285 7.43457 0.1435 8.77044C-1.37463e-07 11.002 0 11.6593 0 17.2987C0 22.9381 -1.37463e-07 23.5954 0.1435 25.827C0.165566 27.1675 0.456687 28.4953 1.0045 29.7538C1.41415 30.6642 2.05026 31.4901 2.87 32.1756C3.6863 32.8715 4.67275 33.4088 5.7605 33.7498C7.24177 34.2212 8.8104 34.4672 10.3935 34.4763C13.038 34.5974 13.817 34.5974 20.5 34.5974C27.183 34.5974 27.962 34.5974 30.6065 34.4763C32.1896 34.4672 33.7582 34.2212 35.2395 33.7498C36.3273 33.4088 37.3137 32.8715 38.13 32.1756C38.9497 31.4901 39.5859 30.6642 39.9955 29.7538C40.5537 28.4977 40.8451 27.1684 40.8565 25.827C41 23.5954 41 22.9381 41 17.2987C41 11.6593 41 11.002 40.8565 8.77044ZM35.6495 22.6094C35.5837 23.6769 35.3137 24.7284 34.85 25.7232C34.452 26.553 33.8604 27.3068 33.1103 27.9397C32.3601 28.5727 31.4669 29.072 30.4835 29.4078C29.2935 29.7773 28.0405 29.9818 26.773 30.0133H14.227C12.9595 29.9818 11.7065 29.7773 10.5165 29.4078C9.49991 29.089 8.58187 28.5804 7.831 27.9201C7.08822 27.2995 6.51458 26.5498 6.15 25.7232C5.71039 24.7201 5.47474 23.6615 5.453 22.5921V17.2987V12.0053C5.47474 10.9359 5.71039 9.87736 6.15 8.87424C6.52778 8.0164 7.13046 7.24172 7.913 6.60811C8.65168 5.9847 9.53919 5.50115 10.5165 5.18961C11.7065 4.82012 12.9595 4.61566 14.227 4.58416H26.773C28.0405 4.61566 29.2935 4.82012 30.4835 5.18961C31.5001 5.50839 32.4181 6.01696 33.169 6.6773C33.9118 7.29789 34.4854 8.04759 34.85 8.87424C35.2879 9.87841 35.5302 10.9358 35.5675 12.0053V17.2987C35.5675 20.8622 35.711 21.2255 35.6495 22.5921V22.6094ZM32.3695 9.73917C32.1254 9.1804 31.7406 8.67295 31.2416 8.25185C30.7425 7.83075 30.1412 7.50602 29.479 7.30005C28.5698 7.0341 27.6122 6.90528 26.65 6.91948H14.35C13.3829 6.92746 12.4252 7.07973 11.521 7.36925C10.869 7.56586 10.274 7.87733 9.7756 8.28297C9.27722 8.6886 8.88688 9.1791 8.6305 9.72187C8.33279 10.4923 8.18735 11.2988 8.2 12.1091V22.4883C8.22032 23.3034 8.40043 24.1101 8.733 24.8755C8.97708 25.4343 9.36191 25.9418 9.86094 26.3629C10.36 26.784 10.9613 27.1087 11.6235 27.3147C12.4982 27.5861 13.4186 27.7379 14.35 27.7644H26.65C27.6171 27.7564 28.5748 27.6042 29.479 27.3147C30.1412 27.1087 30.7425 26.784 31.2416 26.3629C31.7406 25.9418 32.1254 25.4343 32.3695 24.8755C32.7126 24.1125 32.893 23.3044 32.9025 22.4883V17.2987V12.1091C32.9031 11.2922 32.7223 10.4825 32.3695 9.72187V9.73917ZM20.5 23.9068C19.4726 23.9068 18.4553 23.7358 17.5063 23.4035C16.5574 23.0712 15.6954 22.5841 14.9699 21.9703C14.2443 21.3564 13.6695 20.6278 13.2781 19.8262C12.8868 19.0246 12.6868 18.1657 12.6895 17.2987C12.6895 15.991 13.1493 14.7127 14.0107 13.6256C14.8721 12.5386 16.0963 11.6916 17.5285 11.192C18.9606 10.6923 20.5362 10.5625 22.0558 10.8189C23.5754 11.0752 24.9707 11.7063 26.0651 12.6322C27.1595 13.5581 27.9037 14.7372 28.2035 16.0202C28.5034 17.3031 28.3454 18.6324 27.7495 19.8395C27.1536 21.0467 26.1467 22.0775 24.8562 22.8016C23.5657 23.5256 22.0497 23.9102 20.5 23.9068ZM28.7 11.988C28.2468 11.9475 27.8274 11.767 27.5227 11.4811C27.2179 11.1952 27.0492 10.8243 27.0492 10.4398C27.0492 10.0552 27.2179 9.6843 27.5227 9.39844C27.8274 9.11258 28.2468 8.93201 28.7 8.89153C29.1532 8.93201 29.5725 9.11258 29.8773 9.39844C30.1821 9.6843 30.3508 10.0552 30.3508 10.4398C30.3508 10.8243 30.1821 11.1952 29.8773 11.4811C29.5725 11.767 29.1532 11.9475 28.7 11.988Z" fill="white"/>
</svg>
