<svg xmlns="http://www.w3.org/2000/svg" xmlns:xlink="http://www.w3.org/1999/xlink" viewBox="0 0 19.41 16.09"><defs><style>.cls-1{fill:none;}.cls-2{clip-path:url(#clip-path);}.cls-3{fill:#fff;fill-rule:evenodd;}</style><clipPath id="clip-path" transform="translate(-1 -1)"><rect class="cls-1" width="21.41" height="18.09"/></clipPath></defs><title>Ресурс 3</title><g id="Слой_2" data-name="Слой 2"><g id="Слой_1-2" data-name="Слой 1"><g class="cls-2"><path class="cls-3" d="M10.7,14.53A4.33,4.33,0,1,1,15,10.21a4.32,4.32,0,0,1-4.33,4.32M19.21,3.32H15.44L13.21,1.21A.73.73,0,0,0,12.69,1h-4a.71.71,0,0,0-.51.21L6,3.32H2.2A1.2,1.2,0,0,0,1,4.52V15.89a1.2,1.2,0,0,0,1.2,1.2h17a1.2,1.2,0,0,0,1.2-1.2V4.52A1.2,1.2,0,0,0,19.21,3.32Z" transform="translate(-1 -1)"/><path class="cls-3" d="M13.44,10.21A2.74,2.74,0,1,1,10.7,7.47a2.74,2.74,0,0,1,2.74,2.74" transform="translate(-1 -1)"/></g></g></g></svg>