<svg xmlns="http://www.w3.org/2000/svg" xmlns:xlink="http://www.w3.org/1999/xlink" viewBox="0 0 17.28 16.73"><defs><style>.cls-1{fill:none;}.cls-2{clip-path:url(#clip-path);}.cls-3{fill:#ff7900;fill-rule:evenodd;}</style><clipPath id="clip-path" transform="translate(-1 -1)"><rect class="cls-1" width="19.28" height="18.73"/></clipPath></defs><title>Ресурс 4</title><g id="Слой_2" data-name="Слой 2"><g id="Слой_1-2" data-name="Слой 1"><g class="cls-2"><path class="cls-3" d="M18.06,9.16A.83.83,0,0,0,18,8L10.27,1.23A1,1,0,0,0,9,1.24L1.27,8.34a.83.83,0,0,0,0,1.18l.2.2a.84.84,0,0,0,1.16.09l.58-.52v7.59a.84.84,0,0,0,.84.85H7a.84.84,0,0,0,.84-.85V11.57h3.86v5.31a.79.79,0,0,0,.79.85h3.2a.85.85,0,0,0,.84-.85V9.4l.36.31c.19.18.61,0,.92-.31Z" transform="translate(-1 -1)"/></g></g></g></svg>