<svg xmlns="http://www.w3.org/2000/svg" viewBox="0 0 19.41 17.05"><defs><style>.cls-1{fill:#ff7900;fill-rule:evenodd;}</style></defs><title>Ресурс 1</title><g id="Слой_2" data-name="Слой 2"><g id="Слой_1-2" data-name="Слой 1"><path class="cls-1" d="M4.7,7.85,1.52,11.16v5.6a.28.28,0,0,0,.28.29H5.67A.29.29,0,0,0,6,16.76V8.18l-.9-.33Z"/><path class="cls-1" d="M12.59,10.45H8.72a.29.29,0,0,0-.29.28v6a.29.29,0,0,0,.29.29h3.87a.29.29,0,0,0,.28-.29v-6a.29.29,0,0,0-.28-.28"/><path class="cls-1" d="M19.36,4.43a1,1,0,0,1-.48.12,1,1,0,0,1-.67-.24l-.7-.59L15,6.5V16.76a.29.29,0,0,0,.29.29h3.87a.29.29,0,0,0,.29-.29V4.4l-.05,0"/><path class="cls-1" d="M11,9.12A.58.58,0,0,0,11.62,9l5.87-6.4,1.37,1.15a.21.21,0,0,0,.24,0,.21.21,0,0,0,.11-.21L18.92.2A.23.23,0,0,0,18.7,0h0L15.35.3a.22.22,0,0,0-.18.15.11.11,0,0,0,0,.08.21.21,0,0,0,.07.15l1.38,1.15L11,7.91,4.67,5.57a.58.58,0,0,0-.61.14L.16,9.77a.57.57,0,0,0-.16.38v0a.55.55,0,0,0,.18.4.59.59,0,0,0,.39.16A.55.55,0,0,0,1,10.56L4.62,6.77Z"/></g></g></svg>