<svg width="41" height="37" viewBox="0 0 41 37" fill="none" xmlns="http://www.w3.org/2000/svg">
<path d="M8.92041 20.0417H27.9893L19.6584 27.565C18.9926 28.1663 18.9926 29.1529 19.6584 29.7542C20.3242 30.3554 21.3997 30.3554 22.0655 29.7542L33.3157 19.5946C33.9815 18.9933 33.9815 18.0221 33.3157 17.4208L22.0826 7.24584C21.7636 6.95716 21.3306 6.79492 20.879 6.79492C20.4275 6.79492 19.9944 6.95716 19.6755 7.24584C19.0097 7.84709 19.0097 8.81834 19.6755 9.41959L27.9893 16.9583H8.92041C7.98148 16.9583 7.21326 17.6521 7.21326 18.5C7.21326 19.3479 7.98148 20.0417 8.92041 20.0417Z" fill="#7A50FF"/>
<mask id="mask0" mask-type="alpha" maskUnits="userSpaceOnUse" x="7" y="6" width="27" height="25">
<path d="M8.92041 20.0417H27.9893L19.6584 27.565C18.9926 28.1663 18.9926 29.1529 19.6584 29.7542C20.3242 30.3554 21.3997 30.3554 22.0655 29.7542L33.3157 19.5946C33.9815 18.9933 33.9815 18.0221 33.3157 17.4208L22.0826 7.24584C21.7636 6.95716 21.3306 6.79492 20.879 6.79492C20.4275 6.79492 19.9944 6.95716 19.6755 7.24584C19.0097 7.84709 19.0097 8.81834 19.6755 9.41959L27.9893 16.9583H8.92041C7.98148 16.9583 7.21326 17.6521 7.21326 18.5C7.21326 19.3479 7.98148 20.0417 8.92041 20.0417Z" fill="white"/>
</mask>
<g mask="url(#mask0)">
</g>
</svg>
