<svg width="107" height="31" viewBox="0 0 107 31" fill="none" xmlns="http://www.w3.org/2000/svg">
<path fill-rule="evenodd" clip-rule="evenodd" d="M106 6.38258V27.803H96.0282V6.38258L99.2084 6.38258L101.203 1H103.197L98.1843 14.4564H100.34L103.035 6.38258H106ZM92.6863 27.7481H80.8819V6.32765L89.9374 6.32765V21.1023L95.4892 21.1572L92.6863 27.7481ZM50.4276 28.8466C50.8654 28.8838 51.1798 28.8455 51.5545 28.7998L51.5545 28.7998L51.5547 28.7998L51.5547 28.7998C51.7336 28.778 51.9261 28.7545 52.1525 28.7367C52.2603 28.7367 52.9071 28.6269 53.2844 28.4621C54.2007 28.2424 55.0631 27.803 55.8178 27.3087C56.5185 26.8693 57.1653 26.3201 57.7582 25.661C57.866 25.4962 57.9873 25.3589 58.1086 25.2216C58.2299 25.0843 58.3511 24.947 58.4589 24.7822C58.944 24.1231 59.2675 23.3542 59.4831 22.5852C59.7526 21.4867 59.8065 20.4432 59.537 19.3996C59.2675 18.2462 58.7284 17.2027 58.4589 16.8182L58.3351 16.6637C57.9416 16.1722 57.7635 15.9498 57.2731 15.5C56.8276 15.0985 56.3332 14.7524 55.8676 14.4266L55.8676 14.4266C54.8684 13.7273 54.0022 13.1212 54.039 12.2595C54.0929 11.875 54.3624 11.5455 54.6858 11.3807C55.1709 11.161 55.71 11.2708 56.1951 11.4905C56.2633 11.5253 56.337 11.5601 56.4144 11.5966L56.4145 11.5967C56.5814 11.6755 56.7656 11.7624 56.9497 11.875L57.6504 12.3144L59.537 7.70076C58.944 7.26136 58.4589 6.98674 57.8121 6.6572C57.09 6.28926 56.1703 6.02193 55.4312 5.80707L55.4312 5.80706L55.3326 5.77841C54.6319 5.61364 54.3624 5.55871 53.7695 5.50379C52.8532 5.39394 51.8291 5.50379 51.0744 5.61364C50.1581 5.72348 49.134 6.16288 48.3255 6.60227C47.9482 6.82197 47.463 7.15152 47.1396 7.42614C46.924 7.59091 46.0616 8.4697 45.7382 8.85417C45.2531 9.34848 44.4985 10.8864 44.229 12.1496C44.1751 12.9186 44.1751 13.5777 44.2829 14.2917C44.4985 15.2254 44.768 15.9943 45.1453 16.4886C45.5765 17.2576 46.385 17.9167 47.1396 18.411C47.3596 18.6031 47.6163 18.7766 47.8775 18.9532L47.8776 18.9532L47.8776 18.9532L47.8776 18.9532L47.8777 18.9533L47.8777 18.9533L47.8777 18.9534C48.0645 19.0796 48.2536 19.2074 48.4333 19.3447C48.5309 19.4193 48.5871 19.463 48.6231 19.491L48.6582 19.5182C48.6715 19.5283 48.6809 19.5354 48.6905 19.5422C48.7042 19.5519 48.7183 19.5611 48.7441 19.5779L48.7441 19.578C48.796 19.6119 48.8952 19.6768 49.134 19.839C49.5113 20.1686 49.7808 20.553 49.7269 21.0473C49.6191 21.4867 49.3496 21.7614 48.9723 21.8712C48.3459 21.9694 47.7626 21.7165 47.1839 21.4656L47.1834 21.4654C47.1149 21.4356 47.0464 21.406 46.9779 21.3769C46.4581 21.1732 46.0569 20.9392 45.6424 20.6975L45.6423 20.6974L45.6422 20.6973L45.6421 20.6973C45.4979 20.6132 45.3521 20.5282 45.1992 20.4432L43.1509 25.4962C44.3368 26.5947 45.4148 27.2538 47.1396 27.9678C48.1638 28.572 48.9723 28.7367 50.4276 28.8466ZM33.5781 28.6928C32.9306 28.7439 32.3237 28.7917 31.6699 28.7917C30.1068 28.7367 28.4897 28.2424 27.1422 27.4735C26.9805 27.3087 26.8188 27.1989 26.6032 27.089C26.0103 26.6496 25.3634 26.1004 24.8244 25.4413C24.7755 25.3748 24.7117 25.3032 24.6421 25.2251C24.4817 25.0452 24.2904 24.8306 24.1776 24.5625C23.962 24.2879 23.6386 23.6288 23.5308 23.2443C23.3152 22.9148 23.0996 22.036 23.0457 21.1572V6.38258L29.46 6.38258L31.7238 1L33.9338 1.05492L27.0344 18.3011H29.0826L35.982 1H38.2459L30.1607 21.1572H32.2628L38.192 6.4375L40.9949 6.4375V21.1572C40.941 21.9261 40.6176 23.0246 40.2402 23.9034C40.1513 24.1301 40.0255 24.3194 39.8631 24.5639L39.863 24.5641L39.8629 24.5642L39.8053 24.651L39.7551 24.7273C39.6566 24.9281 39.518 25.1086 39.3759 25.2935C39.2849 25.412 39.1925 25.5323 39.1083 25.661C38.5154 26.3201 37.9225 26.8693 37.1679 27.3087C36.521 27.7481 35.7125 28.1326 34.904 28.4072C34.6937 28.4684 34.4834 28.5126 34.2637 28.5587C34.0893 28.5953 33.909 28.6332 33.7182 28.6818L33.5781 28.6928ZM19.4882 6.27273V30L9.19302 22.9148V27.6932H1V4.46023L11.2413 11.4905V6.27273L19.4882 6.27273ZM69.6654 28.7449C69.2906 28.7905 68.9763 28.8288 68.5385 28.7917C67.0832 28.7367 66.2746 28.517 65.2505 27.9129C63.5257 27.1989 62.4476 26.5398 61.2618 25.4413L63.3101 20.3883C63.4631 20.4733 63.609 20.5584 63.7533 20.6425C64.1678 20.8843 64.569 21.1182 65.0888 21.322C65.1574 21.3511 65.2261 21.3809 65.2948 21.4106C65.8735 21.6616 66.4568 21.9145 67.0832 21.8163C67.4605 21.7064 67.73 21.4318 67.8378 20.9924C67.8917 20.4981 67.6222 20.1136 67.2449 19.7841C66.8872 19.5411 66.8427 19.5165 66.8014 19.4873C66.7681 19.4637 66.7369 19.4371 66.5441 19.2898C66.3644 19.1524 66.1753 19.0246 65.9885 18.8983C65.7272 18.7217 65.4705 18.5482 65.2505 18.3561C64.4959 17.8617 63.6874 17.2027 63.2562 16.4337C62.8788 15.9394 62.6093 15.1705 62.3937 14.2367C62.2859 13.5227 62.2859 12.8636 62.3398 12.0947C62.6093 10.8314 63.364 9.29356 63.8491 8.79924C64.1725 8.41477 65.0349 7.53598 65.2505 7.37121C65.5739 7.09659 66.059 6.76705 66.4363 6.54735C67.2449 6.10795 68.269 5.66856 69.1853 5.55871C69.9399 5.44886 70.9641 5.33902 71.8804 5.44886C72.4733 5.50379 72.7428 5.55871 73.4435 5.72348C73.476 5.73293 73.5088 5.74248 73.542 5.75213C74.2812 5.967 75.2008 6.23433 75.923 6.60227C76.5698 6.93182 77.0549 7.20644 77.6478 7.64583L75.7613 12.2595L75.0606 11.8201C74.8764 11.7075 74.6922 11.6205 74.5252 11.5417C74.4479 11.5052 74.3742 11.4704 74.306 11.4356C73.8208 11.2159 73.2818 11.1061 72.7967 11.3258C72.4733 11.4905 72.2038 11.8201 72.1499 12.2045C72.1131 13.0663 72.9793 13.6724 73.9784 14.3716C74.444 14.6975 74.9385 15.0435 75.384 15.4451C75.8744 15.8948 76.0525 16.1173 76.446 16.6088C76.485 16.6575 76.5261 16.7088 76.5698 16.7633C76.8393 17.1477 77.3783 18.1913 77.6478 19.3447C77.9174 20.3883 77.8634 21.4318 77.5939 22.5303C77.3783 23.2992 77.0549 24.0682 76.5698 24.7273C76.462 24.892 76.3407 25.0294 76.2195 25.1667C76.0982 25.304 75.9769 25.4413 75.8691 25.6061C75.2762 26.2652 74.6294 26.8144 73.9286 27.2538C73.174 27.7481 72.3116 28.1875 71.3953 28.4072C71.018 28.572 70.3712 28.6818 70.2633 28.6818C70.0369 28.6996 69.8443 28.723 69.6654 28.7449Z" fill="white"/>
</svg>
