<svg width="24" height="24" viewBox="0 0 24 24" fill="none" xmlns="http://www.w3.org/2000/svg">
<path fill-rule="evenodd" clip-rule="evenodd" d="M18.1474 10.8222C18.1474 6.78311 14.8624 3.5 10.8237 3.5C6.78384 3.5 3.5 6.78429 3.5 10.8222C3.5 14.8589 6.7862 18.1443 10.8237 18.1443L11.1381 18.1377L11.4502 18.1178C12.7969 18.0031 14.0684 17.5205 15.1442 16.7324L15.262 16.641L18.8339 20.2117L18.9313 20.297C19.1018 20.4277 19.3114 20.5 19.5245 20.5C19.7839 20.5 20.0368 20.3969 20.2217 20.205L20.3012 20.1147L20.3675 20.0169C20.586 19.6464 20.5365 19.1518 20.2151 18.8304L16.644 15.26L16.735 15.1419L16.9115 14.8903C17.7094 13.7003 18.1474 12.2941 18.1474 10.8222ZM5.45454 10.8222C5.45454 7.86413 7.86234 5.45787 10.8201 5.45787C13.7789 5.45787 16.1857 7.86514 16.1857 10.8222C16.1857 13.78 13.7782 16.19 10.8201 16.19C7.86311 16.19 5.45454 13.781 5.45454 10.8222Z" fill="white"/>
</svg>
