<svg width="16" height="16" viewBox="0 0 16 16" fill="none" xmlns="http://www.w3.org/2000/svg">
<path fill-rule="evenodd" clip-rule="evenodd" d="M14.3779 4.91037C14.4678 5.23536 14.5283 5.64891 14.5674 6.17127C14.6098 6.65625 14.6303 7.09414 14.6288 7.44758L14.6667 7.99985C14.6667 9.34363 14.5698 10.3835 14.3779 11.0893C14.1695 11.8396 13.6579 12.3512 12.907 12.5597C12.566 12.6541 12.0142 12.7122 11.172 12.7505C10.4002 12.792 9.66758 12.812 8.9865 12.8115L8.00001 12.8483C5.45509 12.8483 3.80595 12.7536 3.09235 12.5596C2.34208 12.3512 1.83053 11.8396 1.62194 11.0887C1.53223 10.7643 1.47175 10.3508 1.43262 9.82844C1.39018 9.34345 1.36971 8.90556 1.37125 8.55212L1.33334 7.99985C1.33334 6.65607 1.43022 5.61625 1.62212 4.91037C1.83053 4.1601 2.34208 3.64855 3.09299 3.43997C3.43402 3.34564 3.98577 3.28748 4.82803 3.24921C5.59982 3.20766 6.33244 3.18773 7.01352 3.18816L8.00001 3.15137C10.5449 3.15137 12.1941 3.24615 12.9077 3.44014C13.6579 3.64855 14.1695 4.1601 14.3779 4.91037ZM12.5865 4.60894C12.0201 4.45497 10.4284 4.3635 8.02285 4.36307L7.03636 4.39986C6.35428 4.39986 5.64339 4.4192 4.88812 4.45984C4.12882 4.49436 3.64245 4.54563 3.41675 4.60805C3.07611 4.70268 2.88463 4.89416 2.79089 5.23157C2.63329 5.81132 2.54545 6.75415 2.54391 7.95668L2.58181 8.50895C2.58181 8.86897 2.60065 9.27179 2.64072 9.73029C2.67507 10.1883 2.72507 10.5301 2.79001 10.7649C2.88463 11.1056 3.07611 11.297 3.41352 11.3908C3.9799 11.5447 5.57158 11.6362 7.97714 11.6367L8.96363 11.5999C9.64571 11.5999 10.3566 11.5805 11.1119 11.5399C11.8712 11.5054 12.3575 11.4541 12.5832 11.3917C12.9239 11.297 13.1154 11.1056 13.2091 10.7681C13.3667 10.1884 13.4545 9.24558 13.4561 8.04304L13.4182 7.49077C13.4182 7.13075 13.3993 6.72793 13.3593 6.26943C13.3249 5.81164 13.275 5.46989 13.2099 5.23448C13.1152 4.89404 12.9238 4.70265 12.5865 4.60894ZM6.77806 9.41373V6.61128C6.77806 6.39758 7.01341 6.26773 7.19465 6.38405L9.39658 7.78258C9.56429 7.89078 9.56429 8.13424 9.39658 8.23973L7.19465 9.64096C7.01341 9.75728 6.77806 9.62744 6.77806 9.41373Z" fill="white"/>
<mask id="mask0" mask-type="alpha" maskUnits="userSpaceOnUse" x="1" y="3" width="14" height="10">
<path fill-rule="evenodd" clip-rule="evenodd" d="M14.3779 4.91037C14.4678 5.23536 14.5283 5.64891 14.5674 6.17127C14.6098 6.65625 14.6303 7.09414 14.6288 7.44758L14.6667 7.99985C14.6667 9.34363 14.5698 10.3835 14.3779 11.0893C14.1695 11.8396 13.6579 12.3512 12.907 12.5597C12.566 12.6541 12.0142 12.7122 11.172 12.7505C10.4002 12.792 9.66758 12.812 8.9865 12.8115L8.00001 12.8483C5.45509 12.8483 3.80595 12.7536 3.09235 12.5596C2.34208 12.3512 1.83053 11.8396 1.62194 11.0887C1.53223 10.7643 1.47175 10.3508 1.43262 9.82844C1.39018 9.34345 1.36971 8.90556 1.37125 8.55212L1.33334 7.99985C1.33334 6.65607 1.43022 5.61625 1.62212 4.91037C1.83053 4.1601 2.34208 3.64855 3.09299 3.43997C3.43402 3.34564 3.98577 3.28748 4.82803 3.24921C5.59982 3.20766 6.33244 3.18773 7.01352 3.18816L8.00001 3.15137C10.5449 3.15137 12.1941 3.24615 12.9077 3.44014C13.6579 3.64855 14.1695 4.1601 14.3779 4.91037ZM12.5865 4.60894C12.0201 4.45497 10.4284 4.3635 8.02285 4.36307L7.03636 4.39986C6.35428 4.39986 5.64339 4.4192 4.88812 4.45984C4.12882 4.49436 3.64245 4.54563 3.41675 4.60805C3.07611 4.70268 2.88463 4.89416 2.79089 5.23157C2.63329 5.81132 2.54545 6.75415 2.54391 7.95668L2.58181 8.50895C2.58181 8.86897 2.60065 9.27179 2.64072 9.73029C2.67507 10.1883 2.72507 10.5301 2.79001 10.7649C2.88463 11.1056 3.07611 11.297 3.41352 11.3908C3.9799 11.5447 5.57158 11.6362 7.97714 11.6367L8.96363 11.5999C9.64571 11.5999 10.3566 11.5805 11.1119 11.5399C11.8712 11.5054 12.3575 11.4541 12.5832 11.3917C12.9239 11.297 13.1154 11.1056 13.2091 10.7681C13.3667 10.1884 13.4545 9.24558 13.4561 8.04304L13.4182 7.49077C13.4182 7.13075 13.3993 6.72793 13.3593 6.26943C13.3249 5.81164 13.275 5.46989 13.2099 5.23448C13.1152 4.89404 12.9238 4.70265 12.5865 4.60894ZM6.77806 9.41373V6.61128C6.77806 6.39758 7.01341 6.26773 7.19465 6.38405L9.39658 7.78258C9.56429 7.89078 9.56429 8.13424 9.39658 8.23973L7.19465 9.64096C7.01341 9.75728 6.77806 9.62744 6.77806 9.41373Z" fill="white"/>
</mask>
<g mask="url(#mask0)">
</g>
</svg>
