<svg width="16" height="16" viewBox="0 0 16 16" fill="none" xmlns="http://www.w3.org/2000/svg">
<path fill-rule="evenodd" clip-rule="evenodd" d="M3.33334 4.53433C3.33334 3.87141 3.87126 3.3335 4.53418 3.3335C5.19668 3.3335 5.73459 3.87141 5.73501 4.53433C5.73501 5.19725 5.19709 5.74641 4.53418 5.74641C3.87126 5.74641 3.33334 5.19725 3.33334 4.53433ZM13.3308 13.3335V13.3331H13.3333V9.66557C13.3333 7.87141 12.9471 6.48932 10.8496 6.48932C9.84125 6.48932 9.16458 7.04266 8.88833 7.56724H8.85916V6.65682H6.87041V13.3331H8.94125V10.0272C8.94125 9.15682 9.10625 8.31516 10.1842 8.31516C11.2462 8.31516 11.2621 9.30849 11.2621 10.0831V13.3335H13.3308ZM3.49832 6.65726H5.57166V13.3335H3.49832V6.65726Z" fill="white"/>
</svg>
