<svg width="10" height="16" viewBox="0 0 10 16" fill="none" xmlns="http://www.w3.org/2000/svg">
<path d="M8.40001 0C8.95229 0 9.40001 0.447715 9.40001 1V2.2C9.40001 2.75228 8.95229 3.2 8.40001 3.2H7.00001C6.44801 3.2 6.20001 3.848 6.20001 4.4V6.4H7.60001C8.15229 6.4 8.60001 6.84772 8.60001 7.4V8.6C8.60001 9.15228 8.15229 9.6 7.60001 9.6H6.20001V15C6.20001 15.5523 5.75229 16 5.20001 16H4.00001C3.44772 16 3.00001 15.5523 3.00001 15V9.6H1.60001C1.04772 9.6 0.600006 9.15229 0.600006 8.6V7.4C0.600006 6.84772 1.04772 6.4 1.60001 6.4H3.00001V3.2C3.00001 1.43269 4.43269 0 6.20001 0H8.40001Z" fill="white"/>
<mask id="mask0" mask-type="alpha" maskUnits="userSpaceOnUse" x="0" y="0" width="10" height="16">
<path d="M8.40001 0C8.95229 0 9.40001 0.447715 9.40001 1V2.2C9.40001 2.75228 8.95229 3.2 8.40001 3.2H7.00001C6.44801 3.2 6.20001 3.848 6.20001 4.4V6.4H7.60001C8.15229 6.4 8.60001 6.84772 8.60001 7.4V8.6C8.60001 9.15228 8.15229 9.6 7.60001 9.6H6.20001V15C6.20001 15.5523 5.75229 16 5.20001 16H4.00001C3.44772 16 3.00001 15.5523 3.00001 15V9.6H1.60001C1.04772 9.6 0.600006 9.15229 0.600006 8.6V7.4C0.600006 6.84772 1.04772 6.4 1.60001 6.4H3.00001V3.2C3.00001 1.43269 4.43269 0 6.20001 0H8.40001Z" fill="white"/>
</mask>
<g mask="url(#mask0)">
</g>
</svg>
