<svg xmlns="http://www.w3.org/2000/svg" width="30" height="31.5" viewBox="0 0 30 31.5">
  <path id="Icon_awesome-dribbble-square" data-name="Icon awesome-dribbble-square" d="M6.04,16.045a9.569,9.569,0,0,1,5.069-6.729,62.445,62.445,0,0,1,3.4,5.555A32.57,32.57,0,0,1,6.04,16.045Zm15.027-5.217a8.807,8.807,0,0,0-8.21-2.152A52.083,52.083,0,0,1,16.272,14.3,10.44,10.44,0,0,0,21.067,10.828ZM9.382,25.594a8.781,8.781,0,0,0,9.194,1.266,41.246,41.246,0,0,0-1.955-7.284A13.025,13.025,0,0,0,9.382,25.594ZM16,17.986c-.228-.548-.482-1.09-.743-1.631a32,32,0,0,1-9.4,1.364c0,.1-.007.2-.007.3A9.866,9.866,0,0,0,8.2,24.441,14.339,14.339,0,0,1,16,17.986Zm2.337,1.146a42.75,42.75,0,0,1,1.775,6.848,9.675,9.675,0,0,0,3.924-6.441,12.749,12.749,0,0,0-5.7-.408Zm-1.359-3.4c.321.689.556,1.252.8,1.884a20.337,20.337,0,0,1,6.375.309,9.809,9.809,0,0,0-2.069-5.984,12.334,12.334,0,0,1-5.109,3.79ZM30,5.625v24.75a3.3,3.3,0,0,1-3.214,3.375H3.214A3.3,3.3,0,0,1,0,30.375V5.625A3.3,3.3,0,0,1,3.214,2.25H26.786A3.3,3.3,0,0,1,30,5.625ZM25.714,18A11.007,11.007,0,0,0,15,6.75,11.007,11.007,0,0,0,4.286,18,11.007,11.007,0,0,0,15,29.25,11.007,11.007,0,0,0,25.714,18Z" transform="translate(0 -2.25)" fill="#621ec9"/>
</svg>
