<svg xmlns="http://www.w3.org/2000/svg" width="30" height="31.5"><path data-name="Icon awesome-dribbble-square" d="M6.04 13.795a9.569 9.569 0 015.069-6.729 62.445 62.445 0 013.4 5.555 32.57 32.57 0 01-8.469 1.174zm15.027-5.217a8.807 8.807 0 00-8.21-2.152 52.083 52.083 0 013.415 5.624 10.44 10.44 0 004.795-3.472zM9.382 23.344a8.781 8.781 0 009.194 1.266 41.246 41.246 0 00-1.955-7.284 13.025 13.025 0 00-7.239 6.018zM16 15.736a32.519 32.519 0 00-.743-1.631 32 32 0 01-9.4 1.364c0 .1-.007.2-.007.3a9.866 9.866 0 002.35 6.422 14.339 14.339 0 017.8-6.455zm2.337 1.146a42.75 42.75 0 011.775 6.848 9.675 9.675 0 003.924-6.441 12.749 12.749 0 00-5.7-.408zm-1.359-3.4c.321.689.556 1.252.8 1.884a20.337 20.337 0 016.375.309 9.809 9.809 0 00-2.069-5.984 12.334 12.334 0 01-5.109 3.79zM30 3.375v24.75a3.3 3.3 0 01-3.214 3.375H3.214A3.3 3.3 0 010 28.125V3.375A3.3 3.3 0 013.214 0h23.572A3.3 3.3 0 0130 3.375zM25.714 15.75A11.007 11.007 0 0015 4.5 11.007 11.007 0 004.286 15.75 11.007 11.007 0 0015 27a11.007 11.007 0 0010.714-11.25z" fill="#621ec9"/></svg>