<svg xmlns="http://www.w3.org/2000/svg" width="30" height="31.5" viewBox="0 0 30 31.5">
  <path id="Icon_awesome-facebook-square" data-name="Icon awesome-facebook-square" d="M26.786,2.25H3.214A3.3,3.3,0,0,0,0,5.625v24.75A3.3,3.3,0,0,0,3.214,33.75h9.191V23.041H8.186V18h4.219V14.158c0-4.37,2.478-6.784,6.273-6.784a24.379,24.379,0,0,1,3.718.34V12H20.3a2.463,2.463,0,0,0-2.707,2.723V18H22.2l-.737,5.041H17.595V33.75h9.191A3.3,3.3,0,0,0,30,30.375V5.625A3.3,3.3,0,0,0,26.786,2.25Z" transform="translate(0 -2.25)" fill="#621ec9"/>
</svg>
