<svg xmlns="http://www.w3.org/2000/svg" width="133.641" height="53.398"><g data-name="Group 13"><g data-name="Group 2"><g data-name="Group 1"><path data-name="Path 1" d="M65.379 37.015a61.059 61.059 0 00-1.792-11.814 45.342 45.342 0 00-3.666-9.94c-5.7-10.021-11.9-8.473-19.31-6.518a53.071 53.071 0 01-7.5 1.467h-.815a53.071 53.071 0 01-7.5-1.467c-7.414-1.874-13.606-3.5-19.31 6.6a41.536 41.536 0 00-3.666 9.94A61.06 61.06 0 00.036 37.096c-.163 4.155.244 7.17 1.141 9.288a6.175 6.175 0 003.911 3.666 7.966 7.966 0 005.214-.57c3.178-1.3 6.844-4.074 10.429-7.414 2.526-2.444 7.251-3.666 11.977-3.666s9.451 1.222 11.977 3.666c3.585 3.34 7.251 6.111 10.429 7.414a8.523 8.523 0 005.214.57 6.088 6.088 0 003.911-3.748c.895-2.036 1.303-5.051 1.14-9.287zm-3.911 8.148a3.231 3.231 0 01-1.955 2.037 5.626 5.626 0 01-3.34-.407c-2.852-1.141-6.192-3.666-9.451-6.762-3.1-3.1-8.555-4.644-14.014-4.644s-10.918 1.548-14.1 4.481c-3.34 3.1-6.681 5.7-9.451 6.762a5.054 5.054 0 01-3.34.407A3.231 3.231 0 013.862 45c-.652-1.548-.978-4.074-.815-7.822a56.2 56.2 0 011.714-11.244 38.877 38.877 0 013.422-9.207c4.481-8.066 9.7-6.762 15.888-5.133a47.794 47.794 0 007.985 1.548h1.217a47.2 47.2 0 008.066-1.548c6.192-1.548 11.407-2.933 15.888 5.133a37.568 37.568 0 013.426 9.207 61.668 61.668 0 011.711 11.24c.163 3.752-.163 6.277-.896 7.988z" fill="#fff"/></g></g><g data-name="Group 4"><g data-name="Group 3"><path data-name="Path 2" d="M25.211 19.596a4.95 4.95 0 00-2.933-1.385 4.636 4.636 0 00-1.3-2.852l-.081-.081a4.615 4.615 0 00-3.34-1.385 4.811 4.811 0 00-3.34 1.385 4.736 4.736 0 00-1.39 2.936 4.854 4.854 0 00-2.933 1.3l-.081.081a4.615 4.615 0 00-1.385 3.34 4.811 4.811 0 001.385 3.34 4.542 4.542 0 003.014 1.39 4.346 4.346 0 001.385 2.931 4.615 4.615 0 003.34 1.385 4.811 4.811 0 003.34-1.385 4.951 4.951 0 001.385-2.933 4.346 4.346 0 002.933-1.385 4.615 4.615 0 001.385-3.34 4.811 4.811 0 00-1.384-3.342zm-2.037 4.563a1.658 1.658 0 01-1.222.489h-1.141a1.547 1.547 0 00-1.548 1.548v1.059a1.711 1.711 0 11-3.422 0v-1.138a1.547 1.547 0 00-1.548-1.548h-1.14a1.671 1.671 0 01-1.226-2.851l.081-.081a1.947 1.947 0 011.141-.407h1.141a1.547 1.547 0 001.548-1.548V18.54a1.729 1.729 0 012.933-1.222l.081.081a1.947 1.947 0 01.407 1.141v1.141a1.547 1.547 0 001.548 1.548h1.141a1.729 1.729 0 011.222 2.933z" fill="#fff"/></g></g><g data-name="Group 6"><g data-name="Group 5"><circle data-name="Ellipse 1" cx="2.852" cy="2.852" r="2.852" fill="#fff" transform="translate(44.032 14.303)"/></g></g><g data-name="Group 8"><g data-name="Group 7"><circle data-name="Ellipse 2" cx="2.852" cy="2.852" r="2.852" fill="#fff" transform="translate(44.032 25.873)"/></g></g><g data-name="Group 10"><g data-name="Group 9"><circle data-name="Ellipse 3" cx="2.852" cy="2.852" r="2.852" fill="#fff" transform="translate(38.247 20.088)"/></g></g><g data-name="Group 12"><g data-name="Group 11"><circle data-name="Ellipse 4" cx="2.852" cy="2.852" r="2.852" fill="#fff" transform="translate(49.817 20.088)"/></g></g></g><text transform="translate(70.641 21)" fill="#fff" font-size="20" font-family="OpenSans-Bold, Open Sans" font-weight="700"><tspan x="0" y="0">GAME</tspan></text><text transform="translate(70.641 47.398)" fill="#fff" font-size="20" font-family="OpenSans-Bold, Open Sans" font-weight="700"><tspan x="0" y="0">STORE</tspan></text></svg>