<svg xmlns="http://www.w3.org/2000/svg" width="133.641" height="53.398" viewBox="0 0 133.641 53.398">
  <g id="console" transform="translate(-6.927 27.823)">
    <g id="Group_13" data-name="Group 13" transform="translate(6.927 -20.521)">
      <g id="Group_2" data-name="Group 2" transform="translate(0 0)">
        <g id="Group_1" data-name="Group 1">
          <path id="Path_1" data-name="Path 1" d="M72.306,37.741a61.059,61.059,0,0,0-1.792-11.814,45.342,45.342,0,0,0-3.666-9.94c-5.7-10.021-11.9-8.473-19.31-6.518a53.071,53.071,0,0,1-7.5,1.467h-.815a53.071,53.071,0,0,1-7.5-1.467c-7.414-1.874-13.606-3.5-19.31,6.6a41.536,41.536,0,0,0-3.666,9.94A61.06,61.06,0,0,0,6.963,37.822c-.163,4.155.244,7.17,1.141,9.288a6.175,6.175,0,0,0,3.911,3.666,7.966,7.966,0,0,0,5.214-.57c3.178-1.3,6.844-4.074,10.429-7.414,2.526-2.444,7.251-3.666,11.977-3.666s9.451,1.222,11.977,3.666c3.585,3.34,7.251,6.111,10.429,7.414a8.523,8.523,0,0,0,5.214.57,6.088,6.088,0,0,0,3.911-3.748C72.061,44.992,72.469,41.977,72.306,37.741Zm-3.911,8.148a3.231,3.231,0,0,1-1.955,2.037,5.626,5.626,0,0,1-3.34-.407c-2.852-1.141-6.192-3.666-9.451-6.762-3.1-3.1-8.555-4.644-14.014-4.644s-10.918,1.548-14.1,4.481c-3.34,3.1-6.681,5.7-9.451,6.762a5.054,5.054,0,0,1-3.34.407,3.231,3.231,0,0,1-1.955-2.037c-.652-1.548-.978-4.074-.815-7.822A56.2,56.2,0,0,1,11.688,26.66a38.877,38.877,0,0,1,3.422-9.207c4.481-8.066,9.7-6.762,15.888-5.133a47.794,47.794,0,0,0,7.985,1.548H40.2a47.2,47.2,0,0,0,8.066-1.548c6.192-1.548,11.407-2.933,15.888,5.133A37.568,37.568,0,0,1,67.58,26.66,61.668,61.668,0,0,1,69.291,37.9C69.454,41.652,69.128,44.177,68.395,45.888Z" transform="translate(-6.927 -8.028)" fill="#fff"/>
        </g>
      </g>
      <g id="Group_4" data-name="Group 4" transform="translate(8.427 6.594)">
        <g id="Group_3" data-name="Group 3">
          <path id="Path_2" data-name="Path 2" d="M65.084,46.1a4.95,4.95,0,0,0-2.933-1.385,4.636,4.636,0,0,0-1.3-2.852l-.081-.081a4.615,4.615,0,0,0-3.34-1.385,4.811,4.811,0,0,0-3.34,1.385A4.736,4.736,0,0,0,52.7,44.718a4.854,4.854,0,0,0-2.933,1.3l-.081.081a4.615,4.615,0,0,0-1.385,3.34,4.811,4.811,0,0,0,1.385,3.34A4.542,4.542,0,0,0,52.7,54.169,4.346,4.346,0,0,0,54.085,57.1a4.615,4.615,0,0,0,3.34,1.385,4.811,4.811,0,0,0,3.34-1.385,4.951,4.951,0,0,0,1.385-2.933,4.346,4.346,0,0,0,2.933-1.385,4.615,4.615,0,0,0,1.385-3.34A4.811,4.811,0,0,0,65.084,46.1Zm-2.037,4.563a1.658,1.658,0,0,1-1.222.489H60.684A1.547,1.547,0,0,0,59.136,52.7v1.059a1.711,1.711,0,1,1-3.422,0V52.621a1.547,1.547,0,0,0-1.548-1.548H53.026A1.671,1.671,0,0,1,51.8,48.222l.081-.081a1.947,1.947,0,0,1,1.141-.407h1.141a1.547,1.547,0,0,0,1.548-1.548V45.044a1.729,1.729,0,0,1,2.933-1.222l.081.081a1.947,1.947,0,0,1,.407,1.141v1.141a1.547,1.547,0,0,0,1.548,1.548h1.141a1.729,1.729,0,0,1,1.222,2.933Z" transform="translate(-48.3 -40.4)" fill="#fff"/>
        </g>
      </g>
      <g id="Group_6" data-name="Group 6" transform="translate(44.032 7.001)">
        <g id="Group_5" data-name="Group 5" transform="translate(0)">
          <circle id="Ellipse_1" data-name="Ellipse 1" cx="2.852" cy="2.852" r="2.852" fill="#fff"/>
        </g>
      </g>
      <g id="Group_8" data-name="Group 8" transform="translate(44.032 18.571)">
        <g id="Group_7" data-name="Group 7" transform="translate(0)">
          <circle id="Ellipse_2" data-name="Ellipse 2" cx="2.852" cy="2.852" r="2.852" fill="#fff"/>
        </g>
      </g>
      <g id="Group_10" data-name="Group 10" transform="translate(38.247 12.786)">
        <g id="Group_9" data-name="Group 9">
          <circle id="Ellipse_3" data-name="Ellipse 3" cx="2.852" cy="2.852" r="2.852" fill="#fff"/>
        </g>
      </g>
      <g id="Group_12" data-name="Group 12" transform="translate(49.817 12.786)">
        <g id="Group_11" data-name="Group 11">
          <circle id="Ellipse_4" data-name="Ellipse 4" cx="2.852" cy="2.852" r="2.852" fill="#fff"/>
        </g>
      </g>
    </g>
    <path id="Path_3" data-name="Path 3" d="M373.511,11.4h0Z" transform="translate(-291.428 -31.234)" fill="#fff"/>
    <text id="GAME" transform="translate(77.568 -6.823)" fill="#fff" font-size="20" font-family="OpenSans-Bold, Open Sans" font-weight="700"><tspan x="0" y="0">GAME</tspan></text>
    <text id="STORE" transform="translate(77.568 19.575)" fill="#fff" font-size="20" font-family="OpenSans-Bold, Open Sans" font-weight="700"><tspan x="0" y="0">STORE</tspan></text>
  </g>
</svg>
