<svg xmlns="http://www.w3.org/2000/svg" width="31.75" height="31.75"><g fill="#621ec9" data-name="Group 23"><path data-name="Path 19" d="M18.665 15.875a2.791 2.791 0 11-2.79-2.791 2.791 2.791 0 012.79 2.791zm0 0"/><path data-name="Path 20" d="M20.587 7.441h-9.426a3.725 3.725 0 00-3.72 3.721v9.426a3.725 3.725 0 003.721 3.721h9.426a3.725 3.725 0 003.721-3.721v-9.426a3.725 3.725 0 00-3.722-3.721zm-4.713 13.084a4.651 4.651 0 114.651-4.651 4.656 4.656 0 01-4.65 4.651zm5.333-9.054a.93.93 0 11.93-.93.93.93 0 01-.929.931zm0 0"/><path data-name="Path 21" d="M23.378 0H8.372A8.381 8.381 0 000 8.372v15.006a8.381 8.381 0 008.372 8.372h15.006a8.381 8.381 0 008.372-8.372V8.372A8.381 8.381 0 0023.378 0zm2.791 20.588a5.587 5.587 0 01-5.581 5.581h-9.426a5.587 5.587 0 01-5.581-5.581v-9.426a5.587 5.587 0 015.581-5.581h9.426a5.587 5.587 0 015.581 5.581zm0 0"/></g></svg>