<svg xmlns="http://www.w3.org/2000/svg" width="31.75" height="31.75" viewBox="0 0 31.75 31.75">
  <g id="Group_23" data-name="Group 23" transform="translate(-1199 -641)">
    <g id="instagram" transform="translate(1199 641)">
      <path id="Path_19" data-name="Path 19" d="M216.581,213.791A2.791,2.791,0,1,1,213.791,211,2.791,2.791,0,0,1,216.581,213.791Zm0,0" transform="translate(-197.916 -197.916)" fill="#621ec9"/>
      <path id="Path_20" data-name="Path 20" d="M133.146,120h-9.426A3.725,3.725,0,0,0,120,123.721v9.426a3.725,3.725,0,0,0,3.721,3.721h9.426a3.725,3.725,0,0,0,3.721-3.721v-9.426A3.725,3.725,0,0,0,133.146,120Zm-4.713,13.084a4.651,4.651,0,1,1,4.651-4.651A4.656,4.656,0,0,1,128.434,133.084Zm5.333-9.054a.93.93,0,1,1,.93-.93A.93.93,0,0,1,133.767,124.031Zm0,0" transform="translate(-112.559 -112.559)" fill="#621ec9"/>
      <path id="Path_21" data-name="Path 21" d="M23.378,0H8.372A8.381,8.381,0,0,0,0,8.372V23.378A8.381,8.381,0,0,0,8.372,31.75H23.378a8.381,8.381,0,0,0,8.372-8.372V8.372A8.381,8.381,0,0,0,23.378,0Zm2.791,20.588a5.587,5.587,0,0,1-5.581,5.581H11.162a5.587,5.587,0,0,1-5.581-5.581V11.162a5.587,5.587,0,0,1,5.581-5.581h9.426a5.587,5.587,0,0,1,5.581,5.581Zm0,0" fill="#621ec9"/>
    </g>
  </g>
</svg>
