<svg xmlns="http://www.w3.org/2000/svg" width="18" height="15.902" viewBox="0 0 18 15.902">
  <g id="like" transform="translate(0 -29.836)">
    <g id="Group_20" data-name="Group 20" transform="translate(0 29.836)">
      <path id="Path_7" data-name="Path 7" d="M16.687,31.4a4.534,4.534,0,0,0-7.239.521A6.9,6.9,0,0,0,9,32.646a6.9,6.9,0,0,0-.448-.727A4.534,4.534,0,0,0,1.313,31.4,5.456,5.456,0,0,0,0,35.022a6.681,6.681,0,0,0,1.84,4.384,40.969,40.969,0,0,0,4.606,4.3c.7.594,1.417,1.207,2.184,1.878l.023.02a.527.527,0,0,0,.695,0l.023-.02c.767-.671,1.487-1.285,2.184-1.878a40.963,40.963,0,0,0,4.606-4.3A6.682,6.682,0,0,0,18,35.022,5.456,5.456,0,0,0,16.687,31.4ZM10.87,42.906c-.6.512-1.218,1.038-1.87,1.6-.652-.566-1.27-1.093-1.87-1.6-3.658-3.117-6.075-5.177-6.075-7.884A4.4,4.4,0,0,1,2.1,32.1a3.52,3.52,0,0,1,2.677-1.2,3.555,3.555,0,0,1,2.91,1.638A6.252,6.252,0,0,1,8.5,34.134a.527.527,0,0,0,1,0,6.253,6.253,0,0,1,.807-1.605A3.481,3.481,0,0,1,15.9,32.1a4.4,4.4,0,0,1,1.05,2.927C16.945,37.729,14.528,39.789,10.87,42.906Z" transform="translate(0 -29.836)" fill="#fff"/>
    </g>
  </g>
</svg>
