<svg xmlns="http://www.w3.org/2000/svg" width="18" height="15.902"><g data-name="Group 20"><path data-name="Path 7" d="M16.687 1.564a4.534 4.534 0 00-7.239.521A6.9 6.9 0 009 2.81a6.9 6.9 0 00-.448-.727 4.534 4.534 0 00-7.239-.519A5.456 5.456 0 000 5.186 6.681 6.681 0 001.84 9.57a40.969 40.969 0 004.606 4.3c.7.594 1.417 1.207 2.184 1.878l.023.02a.527.527 0 00.695 0l.023-.02c.767-.671 1.487-1.285 2.184-1.878a40.963 40.963 0 004.606-4.3A6.682 6.682 0 0018 5.186a5.456 5.456 0 00-1.313-3.622zM10.87 13.07c-.6.512-1.218 1.038-1.87 1.6-.652-.566-1.27-1.093-1.87-1.6-3.658-3.117-6.075-5.177-6.075-7.884A4.4 4.4 0 012.1 2.264a3.52 3.52 0 012.677-1.2 3.555 3.555 0 012.91 1.638A6.252 6.252 0 018.5 4.298a.527.527 0 001 0 6.253 6.253 0 01.807-1.605 3.481 3.481 0 015.593-.429 4.4 4.4 0 011.05 2.927c-.005 2.702-2.422 4.762-6.08 7.879z" fill="#fff"/></g></svg>