<svg xmlns="http://www.w3.org/2000/svg" width="19.809" height="17.5" viewBox="0 0 19.809 17.5">
  <g id="likepur" transform="translate(0 -29.836)">
    <g id="Group_20" data-name="Group 20" transform="translate(0 29.836)">
      <path id="Path_7" data-name="Path 7" d="M18.363,31.555a4.989,4.989,0,0,0-7.966.573,7.6,7.6,0,0,0-.493.8,7.588,7.588,0,0,0-.493-.8,4.989,4.989,0,0,0-7.966-.573A6,6,0,0,0,0,35.543a7.353,7.353,0,0,0,2.025,4.824A45.085,45.085,0,0,0,7.094,45.1c.767.653,1.559,1.329,2.4,2.067l.025.022a.58.58,0,0,0,.764,0l.025-.022c.844-.738,1.637-1.414,2.4-2.067a45.079,45.079,0,0,0,5.068-4.735,7.353,7.353,0,0,0,2.025-4.824A6,6,0,0,0,18.363,31.555Zm-6.4,12.665c-.661.563-1.341,1.143-2.058,1.766-.717-.623-1.4-1.2-2.058-1.766-4.026-3.431-6.686-5.7-6.686-8.676a4.846,4.846,0,0,1,1.155-3.221A3.874,3.874,0,0,1,5.262,31a3.913,3.913,0,0,1,3.2,1.8,6.88,6.88,0,0,1,.888,1.766.58.58,0,0,0,1.1,0,6.881,6.881,0,0,1,.888-1.767,3.83,3.83,0,0,1,6.148-.477,4.846,4.846,0,0,1,1.155,3.221C18.648,38.522,15.988,40.789,11.962,44.22Z" transform="translate(0 -29.836)" fill="#621ec9"/>
    </g>
  </g>
</svg>
