<svg xmlns="http://www.w3.org/2000/svg" width="19.809" height="17.5"><g data-name="Group 20"><path data-name="Path 7" d="M18.363 1.719a4.989 4.989 0 00-7.966.573 7.6 7.6 0 00-.493.8 7.588 7.588 0 00-.493-.8 4.989 4.989 0 00-7.966-.573A6 6 0 000 5.707a7.353 7.353 0 002.025 4.824 45.085 45.085 0 005.069 4.733 207.38 207.38 0 012.4 2.067l.025.022a.58.58 0 00.764 0l.025-.022c.844-.738 1.637-1.414 2.4-2.067a45.079 45.079 0 005.068-4.735 7.353 7.353 0 002.025-4.824 6 6 0 00-1.438-3.986zm-6.4 12.665c-.661.563-1.341 1.143-2.058 1.766-.717-.623-1.4-1.2-2.058-1.766-4.026-3.431-6.686-5.7-6.686-8.676a4.846 4.846 0 011.155-3.221 3.874 3.874 0 012.946-1.323 3.913 3.913 0 013.2 1.8A6.88 6.88 0 019.35 4.73a.58.58 0 001.1 0 6.881 6.881 0 01.888-1.767 3.83 3.83 0 016.148-.477 4.846 4.846 0 011.155 3.221c.007 2.979-2.653 5.246-6.679 8.677z" fill="#621ec9"/></g></svg>