<svg xmlns="http://www.w3.org/2000/svg" width="30" height="31.5" viewBox="0 0 30 31.5">
  <path id="Icon_awesome-linkedin" data-name="Icon awesome-linkedin" d="M27.857,2.25H2.136A2.209,2.209,0,0,0,0,4.521V31.479A2.209,2.209,0,0,0,2.136,33.75H27.857A2.215,2.215,0,0,0,30,31.479V4.521A2.215,2.215,0,0,0,27.857,2.25Zm-18.79,27H4.621V14.217H9.074V29.25ZM6.844,12.164A2.646,2.646,0,0,1,4.266,9.457,2.646,2.646,0,0,1,6.844,6.75,2.651,2.651,0,0,1,9.422,9.457a2.642,2.642,0,0,1-2.578,2.707ZM25.734,29.25H21.288V21.938c0-1.744-.033-3.987-2.31-3.987-2.317,0-2.672,1.9-2.672,3.86V29.25H11.859V14.217h4.266V16.27h.06A4.648,4.648,0,0,1,20.4,13.845c4.5,0,5.337,3.115,5.337,7.165Z" transform="translate(0 -2.25)" fill="#621ec9"/>
</svg>
