<svg xmlns="http://www.w3.org/2000/svg" width="30" height="31.5"><path data-name="Icon awesome-linkedin" d="M27.857 0H2.136A2.209 2.209 0 000 2.271v26.958A2.209 2.209 0 002.136 31.5h25.721A2.215 2.215 0 0030 29.229V2.271A2.215 2.215 0 0027.857 0zM9.067 27H4.621V11.967h4.453V27zM6.844 9.914a2.646 2.646 0 01-2.578-2.707A2.646 2.646 0 016.844 4.5a2.651 2.651 0 012.578 2.707 2.642 2.642 0 01-2.578 2.707zM25.734 27h-4.446v-7.312c0-1.744-.033-3.987-2.31-3.987-2.317 0-2.672 1.9-2.672 3.86V27h-4.447V11.967h4.266v2.053h.06a4.648 4.648 0 014.215-2.425c4.5 0 5.337 3.115 5.337 7.165z" fill="#621ec9"/></svg>