<svg xmlns="http://www.w3.org/2000/svg" width="104.271" height="41.907" viewBox="0 0 104.271 41.907">
  <g id="logo" transform="translate(-6.927 27.823)">
    <g id="Group_13" data-name="Group 13" transform="translate(6.927 -22.316)">
      <g id="Group_2" data-name="Group 2" transform="translate(0 0)">
        <g id="Group_1" data-name="Group 1">
          <path id="Path_1" data-name="Path 1" d="M56.23,30.435a46.046,46.046,0,0,0-1.352-8.909,34.193,34.193,0,0,0-2.765-7.5c-4.3-7.557-8.97-6.39-14.562-4.915A40.021,40.021,0,0,1,31.9,10.221h-.614a40.021,40.021,0,0,1-5.653-1.106C20.041,7.7,15.371,6.473,11.07,14.091a31.322,31.322,0,0,0-2.765,7.5A46.046,46.046,0,0,0,6.954,30.5a16.741,16.741,0,0,0,.86,7,4.656,4.656,0,0,0,2.949,2.765,6.007,6.007,0,0,0,3.932-.43,28.879,28.879,0,0,0,7.864-5.591c1.9-1.843,5.468-2.765,9.032-2.765s7.127.922,9.032,2.765a28.879,28.879,0,0,0,7.864,5.591,6.427,6.427,0,0,0,3.932.43,4.591,4.591,0,0,0,2.949-2.826A16.428,16.428,0,0,0,56.23,30.435Zm-2.949,6.144a2.436,2.436,0,0,1-1.475,1.536,4.243,4.243,0,0,1-2.519-.307,25.057,25.057,0,0,1-7.127-5.1c-2.335-2.335-6.451-3.5-10.568-3.5s-8.233,1.167-10.629,3.379c-2.519,2.335-5.038,4.3-7.127,5.1a3.811,3.811,0,0,1-2.519.307,2.436,2.436,0,0,1-1.475-1.536,14.528,14.528,0,0,1-.614-5.9,42.381,42.381,0,0,1,1.29-8.479A29.317,29.317,0,0,1,13.1,15.136c3.379-6.083,7.312-5.1,11.981-3.871A36.042,36.042,0,0,0,31.1,12.433h.922A35.6,35.6,0,0,0,38.1,11.265c4.67-1.167,8.6-2.212,11.981,3.871a28.331,28.331,0,0,1,2.581,6.943,46.5,46.5,0,0,1,1.29,8.479A14.217,14.217,0,0,1,53.281,36.579Z" transform="translate(-6.927 -8.028)" fill="#fff"/>
        </g>
      </g>
      <g id="Group_4" data-name="Group 4" transform="translate(6.355 4.972)">
        <g id="Group_3" data-name="Group 3">
          <path id="Path_2" data-name="Path 2" d="M60.957,44.7a3.733,3.733,0,0,0-2.212-1.045,3.5,3.5,0,0,0-.983-2.15l-.061-.061A3.48,3.48,0,0,0,55.181,40.4a3.628,3.628,0,0,0-2.519,1.045,3.571,3.571,0,0,0-1.045,2.212,3.66,3.66,0,0,0-2.212.983l-.061.061A3.48,3.48,0,0,0,48.3,47.22a3.628,3.628,0,0,0,1.044,2.519,3.425,3.425,0,0,0,2.273,1.045A3.278,3.278,0,0,0,52.662,53a3.48,3.48,0,0,0,2.519,1.045A3.628,3.628,0,0,0,57.7,53a3.733,3.733,0,0,0,1.045-2.212,3.278,3.278,0,0,0,2.212-1.045A3.48,3.48,0,0,0,62,47.22,3.628,3.628,0,0,0,60.957,44.7Zm-1.536,3.441a1.25,1.25,0,0,1-.922.369h-.86a1.167,1.167,0,0,0-1.167,1.167v.8a1.29,1.29,0,1,1-2.581,0v-.86a1.167,1.167,0,0,0-1.167-1.167h-.86a1.26,1.26,0,0,1-.922-2.15L51,46.237a1.468,1.468,0,0,1,.86-.307h.86a1.167,1.167,0,0,0,1.167-1.167V43.9a1.3,1.3,0,0,1,2.212-.922l.061.061a1.468,1.468,0,0,1,.307.86v.86a1.167,1.167,0,0,0,1.167,1.167h.86a1.3,1.3,0,0,1,.922,2.212Z" transform="translate(-48.3 -40.4)" fill="#fff"/>
        </g>
      </g>
      <g id="Group_6" data-name="Group 6" transform="translate(33.205 5.28)">
        <g id="Group_5" data-name="Group 5" transform="translate(0)">
          <circle id="Ellipse_1" data-name="Ellipse 1" cx="2.15" cy="2.15" r="2.15" fill="#fff"/>
        </g>
      </g>
      <g id="Group_8" data-name="Group 8" transform="translate(33.205 14.004)">
        <g id="Group_7" data-name="Group 7" transform="translate(0)">
          <circle id="Ellipse_2" data-name="Ellipse 2" cx="2.15" cy="2.15" r="2.15" fill="#fff"/>
        </g>
      </g>
      <g id="Group_10" data-name="Group 10" transform="translate(28.842 9.642)">
        <g id="Group_9" data-name="Group 9">
          <circle id="Ellipse_3" data-name="Ellipse 3" cx="2.15" cy="2.15" r="2.15" fill="#fff"/>
        </g>
      </g>
      <g id="Group_12" data-name="Group 12" transform="translate(37.567 9.642)">
        <g id="Group_11" data-name="Group 11">
          <circle id="Ellipse_4" data-name="Ellipse 4" cx="2.15" cy="2.15" r="2.15" fill="#fff"/>
        </g>
      </g>
    </g>
    <path id="Path_3" data-name="Path 3" d="M373.361,11.4h0Z" transform="translate(-309.758 -33.198)" fill="#fff"/>
    <text id="GAME" transform="translate(60.198 -10.823)" fill="#fff" font-size="16" font-family="OpenSans-Bold, Open Sans" font-weight="700"><tspan x="0" y="0">GAME</tspan></text>
    <text id="STORE" transform="translate(60.198 9.084)" fill="#fff" font-size="16" font-family="OpenSans-Bold, Open Sans" font-weight="700"><tspan x="0" y="0">STORE</tspan></text>
  </g>
</svg>
