<svg xmlns="http://www.w3.org/2000/svg" width="104.271" height="41.907"><g data-name="Group 13"><g data-name="Group 2"><g data-name="Group 1"><path data-name="Path 1" d="M49.303 27.914a46.046 46.046 0 00-1.352-8.909 34.193 34.193 0 00-2.765-7.5c-4.3-7.557-8.97-6.39-14.562-4.915a40.021 40.021 0 01-5.651 1.11h-.614a40.021 40.021 0 01-5.653-1.106C13.114 5.179 8.444 3.952 4.143 11.57a31.322 31.322 0 00-2.765 7.5 46.046 46.046 0 00-1.351 8.909 16.741 16.741 0 00.86 7 4.656 4.656 0 002.949 2.765 6.007 6.007 0 003.932-.43 28.879 28.879 0 007.864-5.591c1.9-1.843 5.468-2.765 9.032-2.765s7.127.922 9.032 2.765a28.879 28.879 0 007.864 5.591 6.427 6.427 0 003.932.43 4.591 4.591 0 002.949-2.826 16.428 16.428 0 00.862-7.004zm-2.949 6.144a2.436 2.436 0 01-1.475 1.536 4.243 4.243 0 01-2.519-.307 25.057 25.057 0 01-7.127-5.1c-2.335-2.335-6.451-3.5-10.568-3.5s-8.233 1.167-10.629 3.379c-2.519 2.335-5.038 4.3-7.127 5.1a3.811 3.811 0 01-2.519.307 2.436 2.436 0 01-1.475-1.536 14.528 14.528 0 01-.614-5.9 42.381 42.381 0 011.29-8.479 29.317 29.317 0 012.582-6.943c3.379-6.083 7.312-5.1 11.981-3.871a36.042 36.042 0 006.019 1.168h.922a35.6 35.6 0 006.078-1.168c4.67-1.167 8.6-2.212 11.981 3.871a28.331 28.331 0 012.581 6.943 46.5 46.5 0 011.29 8.479 14.217 14.217 0 01-.671 6.021z" fill="#fff"/></g></g><g data-name="Group 4"><g data-name="Group 3"><path data-name="Path 2" d="M19.012 14.779a3.733 3.733 0 00-2.212-1.045 3.5 3.5 0 00-.983-2.15l-.061-.061a3.48 3.48 0 00-2.52-1.044 3.628 3.628 0 00-2.519 1.045 3.571 3.571 0 00-1.045 2.212 3.66 3.66 0 00-2.212.983l-.061.061a3.48 3.48 0 00-1.044 2.519 3.628 3.628 0 001.044 2.519 3.425 3.425 0 002.273 1.045 3.278 3.278 0 001.045 2.216 3.48 3.48 0 002.519 1.045 3.628 3.628 0 002.519-1.045 3.733 3.733 0 001.045-2.212 3.278 3.278 0 002.212-1.045 3.48 3.48 0 001.043-2.523 3.628 3.628 0 00-1.043-2.52zm-1.536 3.441a1.25 1.25 0 01-.922.369h-.86a1.167 1.167 0 00-1.167 1.167v.8a1.29 1.29 0 11-2.581 0v-.86a1.167 1.167 0 00-1.167-1.167h-.86a1.26 1.26 0 01-.922-2.15l.058-.063a1.468 1.468 0 01.86-.307h.86a1.167 1.167 0 001.167-1.167v-.863a1.3 1.3 0 012.212-.922l.061.061a1.468 1.468 0 01.307.86v.86a1.167 1.167 0 001.167 1.167h.86a1.3 1.3 0 01.922 2.212z" fill="#fff"/></g></g><g data-name="Group 6"><g data-name="Group 5"><circle data-name="Ellipse 1" cx="2.15" cy="2.15" r="2.15" fill="#fff" transform="translate(33.205 10.787)"/></g></g><g data-name="Group 8"><g data-name="Group 7"><circle data-name="Ellipse 2" cx="2.15" cy="2.15" r="2.15" fill="#fff" transform="translate(33.205 19.511)"/></g></g><g data-name="Group 10"><g data-name="Group 9"><circle data-name="Ellipse 3" cx="2.15" cy="2.15" r="2.15" fill="#fff" transform="translate(28.842 15.149)"/></g></g><g data-name="Group 12"><g data-name="Group 11"><circle data-name="Ellipse 4" cx="2.15" cy="2.15" r="2.15" fill="#fff" transform="translate(37.567 15.149)"/></g></g></g><text transform="translate(53.271 17)" fill="#fff" font-size="16" font-family="OpenSans-Bold, Open Sans" font-weight="700"><tspan x="0" y="0">GAME</tspan></text><text transform="translate(53.271 36.907)" fill="#fff" font-size="16" font-family="OpenSans-Bold, Open Sans" font-weight="700"><tspan x="0" y="0">STORE</tspan></text></svg>