<svg xmlns="http://www.w3.org/2000/svg" width="21.263" height="21.263" viewBox="0 0 21.263 21.263">
  <path id="Icon_awesome-phone-alt" data-name="Icon awesome-phone-alt" d="M20.657,15.026l-4.651-1.993a1,1,0,0,0-1.163.287l-2.06,2.517A15.394,15.394,0,0,1,5.424,8.477l2.517-2.06a.994.994,0,0,0,.287-1.163L6.234.6A1,1,0,0,0,5.092.026l-4.319,1A1,1,0,0,0,0,1.994a19.268,19.268,0,0,0,19.27,19.27,1,1,0,0,0,.972-.772l1-4.319a1.009,1.009,0,0,0-.582-1.146Z" transform="translate(0 0)" fill="#621ec9"/>
</svg>
