<svg xmlns="http://www.w3.org/2000/svg" width="48.719" height="31.936"><g id="Group_4" data-name="Group 4" transform="translate(-.615 -5.974)"><path id="Union_5" data-name="Union 5" d="M5034.618 11888.183a2.86 2.86 0 01-2.043-.859 2.677 2.677 0 01-.856-1.814 2.8 2.8 0 01-1.862-.856 2.974 2.974 0 01-.856-2.064 2.844 2.844 0 01.856-2.064l.048-.051a3.022 3.022 0 011.814-.806 2.92 2.92 0 01.856-1.811 2.976 2.976 0 012.064-.856 2.845 2.845 0 012.064.856l.051.048a2.866 2.866 0 01.806 1.763 3.045 3.045 0 011.811.856 2.973 2.973 0 01.856 2.064 2.851 2.851 0 01-.856 2.068 2.69 2.69 0 01-1.811.855 3.059 3.059 0 01-.856 1.812 2.978 2.978 0 01-2.064.859zm-1.993-4.586a.956.956 0 01.958.955v.707a1.058 1.058 0 002.115 0v-.656a.956.956 0 01.955-.958h.7a1.016 1.016 0 00.754-.3 1.064 1.064 0 00-.755-1.811h-.7a.959.959 0 01-.958-.958v-.7a1.211 1.211 0 00-.25-.707l-.051-.048a1.065 1.065 0 00-1.814.755v.707a.956.956 0 01-.955.958h-.7a1.183 1.183 0 00-.7.25l-.05.051a1.034 1.034 0 00.758 1.764zm21.225 2.184a1.75 1.75 0 111.749 1.752 1.749 1.749 0 01-1.749-1.753zm3.359-3.365a1.75 1.75 0 111.751 1.752 1.751 1.751 0 01-1.751-1.753zm-6.722 0a1.75 1.75 0 111.749 1.752 1.749 1.749 0 01-1.748-1.753zm3.362-3.359a1.75 1.75 0 111.749 1.751 1.747 1.747 0 01-1.748-1.752z" transform="translate(-5020.604 -11865.518)" fill="#fff" style="animation:mqopJXPQ_draw 2000ms linear 0ms forwards" stroke-dasharray="104 106" stroke-dashoffset="105"/><path id="Union_1" data-name="Union 1" d="M31.691 29.041c-3.868-1.629-5.535-1.453-6.31-1.276l-.138.034a.6.6 0 01-.113.068h0-.011a.314.314 0 01-.39-.066c-.05-.013-.1-.027-.164-.041-.774-.177-2.442-.353-6.31 1.276-1.967.936-9.7 10.587-14.146 7.119-6.489-6.848 2.2-31.174 8.713-29.043a44.589 44.589 0 0012 1.767V8.87l.155.006.155-.006v.009a44.562 44.562 0 0011.995-1.767c6.516-2.131 15.2 22.2 8.713 29.043a3.5 3.5 0 01-2.212.749c-4.446.005-10.265-7.069-11.937-7.863z" fill="none" stroke="#fff" stroke-width="2" style="animation:mqopJXPQ_draw 2000ms linear 1000ms forwards" stroke-dasharray="141 143" stroke-dashoffset="142"/></g><style data-made-with="vivus-instant">@keyframes mqopJXPQ_fade{0%,94.44444444444444%{stroke-opacity:1}}</style></svg>