<svg xmlns="http://www.w3.org/2000/svg" width="30" height="31.5"><path data-name="Icon awesome-twitter-square" d="M26.786 0H3.214A3.3 3.3 0 000 3.375v24.75A3.3 3.3 0 003.214 31.5h23.572A3.3 3.3 0 0030 28.125V3.375A3.3 3.3 0 0026.786 0zm-3.275 11.166c.013.2.013.4.013.6 0 6.1-4.42 13.12-12.5 13.12a12.011 12.011 0 01-6.743-2.067 8.816 8.816 0 001.058.056 8.543 8.543 0 005.451-1.969 4.43 4.43 0 01-4.1-3.2 4.514 4.514 0 001.982-.084 4.562 4.562 0 01-3.516-4.528v-.056a4.232 4.232 0 001.982.584A4.667 4.667 0 015.183 9.78a4.729 4.729 0 01.6-2.327 12.285 12.285 0 009.054 4.823 4.564 4.564 0 014.286-5.667 4.282 4.282 0 013.208 1.455 8.361 8.361 0 002.781-1.114 4.566 4.566 0 01-1.929 2.538 8.415 8.415 0 002.531-.717 9.512 9.512 0 01-2.203 2.395z" fill="#621ec9"/></svg>