<svg xmlns="http://www.w3.org/2000/svg" width="30" height="31.5" viewBox="0 0 30 31.5">
  <path id="Icon_awesome-twitter-square" data-name="Icon awesome-twitter-square" d="M26.786,2.25H3.214A3.3,3.3,0,0,0,0,5.625v24.75A3.3,3.3,0,0,0,3.214,33.75H26.786A3.3,3.3,0,0,0,30,30.375V5.625A3.3,3.3,0,0,0,26.786,2.25ZM23.511,13.416c.013.2.013.4.013.6,0,6.1-4.42,13.12-12.5,13.12a12.011,12.011,0,0,1-6.743-2.067,8.816,8.816,0,0,0,1.058.056,8.543,8.543,0,0,0,5.451-1.969,4.43,4.43,0,0,1-4.1-3.2,4.514,4.514,0,0,0,1.982-.084,4.562,4.562,0,0,1-3.516-4.528v-.056a4.232,4.232,0,0,0,1.982.584A4.667,4.667,0,0,1,5.183,12.03a4.729,4.729,0,0,1,.6-2.327,12.285,12.285,0,0,0,9.054,4.823,4.564,4.564,0,0,1,4.286-5.667,4.282,4.282,0,0,1,3.208,1.455A8.361,8.361,0,0,0,25.112,9.2a4.566,4.566,0,0,1-1.929,2.538,8.415,8.415,0,0,0,2.531-.717A9.512,9.512,0,0,1,23.511,13.416Z" transform="translate(0 -2.25)" fill="#621ec9"/>
</svg>
