<svg width="10" height="6" viewBox="0 0 10 6" fill="none" xmlns="http://www.w3.org/2000/svg">
<path d="M5 3.904L8.577 0.327C8.73334 0.170655 8.94539 0.0828209 9.1665 0.0828209C9.3876 0.0828209 9.59965 0.170655 9.756 0.327C9.91234 0.483345 10.0002 0.695394 10.0002 0.9165C10.0002 1.13761 9.91234 1.34965 9.756 1.506L5.589 5.672C5.51163 5.7495 5.41974 5.81097 5.31858 5.85292C5.21743 5.89487 5.109 5.91646 4.9995 5.91646C4.88999 5.91646 4.78156 5.89487 4.68041 5.85292C4.57925 5.81097 4.48736 5.7495 4.41 5.672L0.243996 1.506C0.0876507 1.34965 -0.000183108 1.13761 -0.000183105 0.9165C-0.000183103 0.695394 0.0876507 0.483345 0.243996 0.327C0.400341 0.170655 0.61239 0.0828209 0.833496 0.0828209C1.0546 0.0828209 1.26665 0.170655 1.423 0.327L5 3.904Z" fill="#696974"/>
</svg>
