<svg width="17" height="14" viewBox="0 0 17 14" fill="none" xmlns="http://www.w3.org/2000/svg">
<path d="M5.3125 2.33524C5.03071 2.33524 4.76046 2.4581 4.5612 2.67681C4.36194 2.89551 4.25 3.19214 4.25 3.50143C4.25 3.81072 4.36194 4.10735 4.5612 4.32605C4.76046 4.54475 5.03071 4.66762 5.3125 4.66762C5.59429 4.66762 5.86454 4.54475 6.0638 4.32605C6.26306 4.10735 6.375 3.81072 6.375 3.50143C6.375 3.19214 6.26306 2.89551 6.0638 2.67681C5.86454 2.4581 5.59429 2.33524 5.3125 2.33524ZM2.30563 2.33524C2.52514 1.6524 2.93222 1.0611 3.47076 0.642851C4.0093 0.224603 4.65278 0 5.3125 0C5.97222 0 6.6157 0.224603 7.15424 0.642851C7.69278 1.0611 8.09986 1.6524 8.31937 2.33524H15.9375C16.2193 2.33524 16.4895 2.4581 16.6888 2.67681C16.8881 2.89551 17 3.19214 17 3.50143C17 3.81072 16.8881 4.10735 16.6888 4.32605C16.4895 4.54475 16.2193 4.66762 15.9375 4.66762H8.31937C8.09986 5.35046 7.69278 5.94176 7.15424 6.36001C6.6157 6.77825 5.97222 7.00286 5.3125 7.00286C4.65278 7.00286 4.0093 6.77825 3.47076 6.36001C2.93222 5.94176 2.52514 5.35046 2.30563 4.66762H1.0625C0.780707 4.66762 0.510457 4.54475 0.311199 4.32605C0.111942 4.10735 0 3.81072 0 3.50143C0 3.19214 0.111942 2.89551 0.311199 2.67681C0.510457 2.4581 0.780707 2.33524 1.0625 2.33524H2.30563ZM11.6875 9.33238C11.4057 9.33238 11.1355 9.45525 10.9362 9.67395C10.7369 9.89265 10.625 10.1893 10.625 10.4986C10.625 10.8079 10.7369 11.1045 10.9362 11.3232C11.1355 11.5419 11.4057 11.6648 11.6875 11.6648C11.9693 11.6648 12.2395 11.5419 12.4388 11.3232C12.6381 11.1045 12.75 10.8079 12.75 10.4986C12.75 10.1893 12.6381 9.89265 12.4388 9.67395C12.2395 9.45525 11.9693 9.33238 11.6875 9.33238ZM8.68063 9.33238C8.90014 8.64954 9.30722 8.05824 9.84576 7.63999C10.3843 7.22174 11.0278 6.99714 11.6875 6.99714C12.3472 6.99714 12.9907 7.22174 13.5292 7.63999C14.0678 8.05824 14.4749 8.64954 14.6944 9.33238H15.9375C16.2193 9.33238 16.4895 9.45525 16.6888 9.67395C16.8881 9.89265 17 10.1893 17 10.4986C17 10.8079 16.8881 11.1045 16.6888 11.3232C16.4895 11.5419 16.2193 11.6648 15.9375 11.6648H14.6944C14.4749 12.3476 14.0678 12.9389 13.5292 13.3571C12.9907 13.7754 12.3472 14 11.6875 14C11.0278 14 10.3843 13.7754 9.84576 13.3571C9.30722 12.9389 8.90014 12.3476 8.68063 11.6648H1.0625C0.780707 11.6648 0.510457 11.5419 0.311199 11.3232C0.111942 11.1045 0 10.8079 0 10.4986C0 10.1893 0.111942 9.89265 0.311199 9.67395C0.510457 9.45525 0.780707 9.33238 1.0625 9.33238H8.68063Z" fill="#92929D"/>
</svg>
