<?xml version="1.0" encoding="UTF-8" standalone="no"?>
<svg width="24px" height="16px" viewBox="0 0 24 16" version="1.1" xmlns="http://www.w3.org/2000/svg" xmlns:xlink="http://www.w3.org/1999/xlink">
    <!-- Generator: Sketch 46.2 (44496) - http://www.bohemiancoding.com/sketch -->
    <title>icon_flag_geo</title>
    <desc>Created with Sketch.</desc>
    <defs></defs>
    <g id="Landing" stroke="none" stroke-width="1" fill="none" fill-rule="evenodd">
        <g id="Desktop-HD-Updated-2" transform="translate(-1333.000000, -24.000000)" fill-rule="nonzero">
            <g id="Menu">
                <g id="lang_selector" transform="translate(1245.000000, 24.000000)">
                    <g id="geo" transform="translate(88.000000, 0.000000)">
                        <g id="Group-4">
                            <g id="icon_flag_geo">
                                <path d="M22.2025781,15.6815464 L1.79742187,15.6815464 C0.804703125,15.6815464 0,14.8796821 0,13.8904654 L0,1.80397292 C0,0.814802921 0.804703125,0.01289186 1.79742187,0.01289186 L22.2025781,0.01289186 C23.19525,0.01289186 24,0.814756211 24,1.80397292 L24,13.8905121 C24,14.8796821 23.1952969,15.6815464 22.2025781,15.6815464 Z" id="Shape" fill="#F5F5F5"></path>
                                <g id="Group" fill="#FF4B55">
                                    <polygon id="Shape" points="24 6.61020781 13.2413906 6.61020781 13.2413906 0.01289186 10.7586094 0.01289186 10.7586094 6.61020781 0 6.61020781 0 9.08423048 10.7586094 9.08423048 10.7586094 15.6815464 13.2413906 15.6815464 13.2413906 9.08423048 24 9.08423048"></polygon>
                                    <path d="M7.03453125,2.74806812 C6.62465625,2.78912589 6.223125,2.83027708 5.82103125,2.87147498 C5.862375,2.470753 5.903625,2.07063824 5.94492187,1.66225588 C5.56903125,1.71069377 5.18976562,1.71069377 4.813875,1.66225588 C4.85507812,2.07068495 4.896375,2.47079971 4.93776562,2.87147498 C4.535625,2.83032379 4.13404687,2.7891726 3.72426562,2.74806812 C3.772875,3.12258599 3.772875,3.50056038 3.72426562,3.87507826 C4.13414062,3.83402049 4.53567187,3.7928693 4.93776562,3.7516714 C4.89642187,4.15239338 4.855125,4.55250813 4.813875,4.9608905 C5.18976562,4.9124526 5.56903125,4.9124526 5.94492187,4.9608905 C5.90371875,4.55250813 5.862375,4.15234667 5.82103125,3.7516714 C6.22317187,3.79282259 6.62470312,3.83397378 7.03453125,3.87507826 C6.98592187,3.50056038 6.98592187,3.12253928 7.03453125,2.74806812 Z" id="Shape"></path>
                                    <path d="M20.275875,2.74806812 C19.866,2.78912589 19.4644687,2.83027708 19.062375,2.87147498 C19.1037187,2.470753 19.1449687,2.07063824 19.1862656,1.66225588 C18.810375,1.71069377 18.4311094,1.71069377 18.0552187,1.66225588 C18.0964219,2.07068495 18.1377187,2.47079971 18.1791094,2.87147498 C17.7769687,2.83032379 17.3753906,2.7891726 16.9656094,2.74806812 C17.0142187,3.12258599 17.0142187,3.50056038 16.9656094,3.87507826 C17.3754844,3.83402049 17.7770156,3.7928693 18.1791094,3.7516714 C18.1377656,4.15239338 18.0964687,4.55250813 18.0552187,4.9608905 C18.4311094,4.9124526 18.810375,4.9124526 19.1862656,4.9608905 C19.1450625,4.55250813 19.1037187,4.15234667 19.062375,3.7516714 C19.4645156,3.79282259 19.8660469,3.83397378 20.275875,3.87507826 C20.2273125,3.50056038 20.2273125,3.12253928 20.275875,2.74806812 Z" id="Shape"></path>
                                    <path d="M7.03453125,11.81936 C6.62465625,11.8604178 6.223125,11.901569 5.82103125,11.9427669 C5.862375,11.5420449 5.903625,11.1419302 5.94492187,10.7335478 C5.56903125,10.7819857 5.18976562,10.7819857 4.813875,10.7335478 C4.85507812,11.1419302 4.896375,11.5420916 4.93776562,11.9427669 C4.535625,11.9016157 4.13404687,11.8604645 3.72426562,11.81936 C3.772875,12.1938779 3.772875,12.5718523 3.72426562,12.9463702 C4.13414062,12.9053124 4.53567187,12.8641612 4.93776562,12.8229633 C4.89642187,13.2236853 4.855125,13.6238 4.813875,14.0321824 C5.18976562,13.9837445 5.56903125,13.9837445 5.94492187,14.0321824 C5.90371875,13.6238 5.862375,13.2236386 5.82103125,12.8229633 C6.22317187,12.8641145 6.62470312,12.9052657 7.03453125,12.9463702 C6.98592187,12.571899 6.98592187,12.1938779 7.03453125,11.81936 Z" id="Shape"></path>
                                    <path d="M20.275875,11.81936 C19.866,11.8604178 19.4644687,11.901569 19.062375,11.9427669 C19.1037187,11.5420449 19.1449687,11.1419302 19.1862656,10.7335478 C18.810375,10.7819857 18.4311094,10.7819857 18.0552187,10.7335478 C18.0964219,11.1419302 18.1377187,11.5420916 18.1791094,11.9427669 C17.7769687,11.9016157 17.3753906,11.8604645 16.9656094,11.81936 C17.0142187,12.1938779 17.0142187,12.5718523 16.9656094,12.9463702 C17.3754844,12.9053124 17.7770156,12.8641612 18.1791094,12.8229633 C18.1377656,13.2236853 18.0964687,13.6238 18.0552187,14.0321824 C18.4311094,13.9837445 18.810375,13.9837445 19.1862656,14.0321824 C19.1450625,13.6238 19.1037187,13.2236386 19.062375,12.8229633 C19.4645156,12.8641145 19.8660469,12.9052657 20.275875,12.9463702 C20.2273125,12.571899 20.2273125,12.1938779 20.275875,11.81936 Z" id="Shape"></path>
                                </g>
                            </g>
                        </g>
                    </g>
                </g>
            </g>
        </g>
    </g>
</svg>