<svg xmlns="http://www.w3.org/2000/svg" viewBox="0 0 43.45 46.41"><defs><style>.cls-1{fill:#fff;}</style></defs><title>Ресурс 4</title><g id="Слой_2" data-name="Слой 2"><g id="home"><path class="cls-1" d="M22.92,22.92,43,2.85A1.67,1.67,0,0,0,40.62.49L21.74,19.37,2.85.49A1.67,1.67,0,0,0,.49,2.85L20.55,22.92A1.68,1.68,0,0,0,22.92,22.92Z"/><path class="cls-1" d="M22.92,45.92,43,25.85a1.67,1.67,0,0,0-2.36-2.36L21.74,42.37,2.85,23.49A1.67,1.67,0,0,0,.49,25.85L20.55,45.92A1.68,1.68,0,0,0,22.92,45.92Z"/></g></g></svg>