<svg xmlns="http://www.w3.org/2000/svg" viewBox="0 0 60 45"><defs><style>.cls-1{fill:#fff;}</style></defs><title>Ресурс 3</title><g id="Слой_2" data-name="Слой 2"><g id="home"><path class="cls-1" d="M26.77.73a2.52,2.52,0,0,1,0,3.54L18.54,12.5H41.46L33.23,4.27A2.5,2.5,0,0,1,36.77.73L48.54,12.5h9a2.5,2.5,0,0,1,0,5h-.41L53.21,38.84A7.5,7.5,0,0,1,45.83,45H14.17a7.5,7.5,0,0,1-7.38-6.16L2.91,17.5H2.5a2.5,2.5,0,0,1,0-5h9L23.23.73A2.52,2.52,0,0,1,26.77.73ZM8,17.5,11.71,38a2.5,2.5,0,0,0,2.46,2H45.83a2.5,2.5,0,0,0,2.46-2L52,17.5Zm10.34,5a2.52,2.52,0,0,1,2.88,2.06l1.25,7.5a2.5,2.5,0,0,1-4.94.82l-1.25-7.5A2.52,2.52,0,0,1,18.34,22.53Zm23.32,0a2.52,2.52,0,0,1,2.06,2.88l-1.25,7.5a2.5,2.5,0,1,1-4.94-.82l1.25-7.5A2.52,2.52,0,0,1,41.66,22.53ZM30,22.5A2.5,2.5,0,0,1,32.5,25v7.5a2.5,2.5,0,0,1-5,0V25A2.5,2.5,0,0,1,30,22.5Z"/></g></g></svg>