<svg width="42" height="35" viewBox="0 0 42 35" fill="none" xmlns="http://www.w3.org/2000/svg">
<path d="M39.75 0H1.65625C0.740137 0 0 0.62456 0 1.39762V33.5428C0 34.3159 0.740137 34.9404 1.65625 34.9404H39.75C40.6661 34.9404 41.4062 34.3159 41.4062 33.5428V1.39762C41.4062 0.62456 40.6661 0 39.75 0ZM34.9676 10.1982H31.6603C29.0672 10.1982 28.5651 11.2377 28.5651 12.7664V16.1337H34.7554L33.948 21.4054H28.5651V34.9404H22.1109V21.4097H16.7126V16.1337H22.1109V12.2466C22.1109 7.73494 25.3769 5.27601 30.1489 5.27601C32.4366 5.27601 34.3982 5.42013 34.9728 5.48565V10.1982H34.9676Z" fill="white"/>
</svg>
