<svg width="50" height="50" fill="none" xmlns="http://www.w3.org/2000/svg"><g clip-path="url(#clip0)"><path d="M50 25c0 13.807-11.193 25-25 25S0 38.807 0 25 11.193 0 25 0s25 11.193 25 25z" fill="#4A7AFF"/><path d="M26.097 49.974C39.395 49.4 50 38.44 50 25c0-.098-.003-.194-.004-.292L32.643 7.354 14.088 26.748l10.31 10.31-4.754 6.463 6.453 6.453z" fill="#0053BF"/><path d="M32.643 7.354v5.661s-6.5-.943-6.5 3.25v4.193h5.87l-.733 6.395h-5.137V43.52h-6.5V26.853l-5.555-.105v-6.29h5.45v-4.822s-.359-7.173 6.71-8.49c2.935-.548 6.395.208 6.395.208z" fill="#fff"/><path d="M32.643 13.015v-5.66s-3.46-.757-6.395-.21a9.906 9.906 0 00-1.283.327v36.049h1.178V26.853h5.137l.734-6.395h-5.87v-4.193c0-4.193 6.499-3.25 6.499-3.25z" fill="#DCE1EB"/></g><defs><clipPath id="clip0"><path fill="#fff" d="M0 0h50v50H0z"/></clipPath></defs></svg>