<svg width="39" height="39" fill="none" xmlns="http://www.w3.org/2000/svg"><path d="M38.377 17.985L24.292 3.9a2.118 2.118 0 00-1.509-.623 2.12 2.12 0 00-1.51.623l-1.278 1.28a2.118 2.118 0 00-.623 1.509c0 .57.221 1.125.623 1.527l8.216 8.234H2.107A2.083 2.083 0 000 18.55v1.808c0 1.177.93 2.192 2.107 2.192h26.198l-8.31 8.28a2.088 2.088 0 00-.623 1.496c0 .57.221 1.1.623 1.502l1.279 1.275c.402.402.937.62 1.51.62a2.12 2.12 0 001.509-.623l14.084-14.085A2.12 2.12 0 0039 19.5a2.12 2.12 0 00-.623-1.515z" fill="#DEE3EF"/></svg>