<svg width="50" height="50" fill="none" xmlns="http://www.w3.org/2000/svg"><g clip-path="url(#clip0)"><path d="M25 50c13.807 0 25-11.193 25-25S38.806 0 25 0 0 11.193 0 25s11.193 25 25 25z" fill="#41B4E6"/><path d="M50 25c0-.609-.023-1.212-.066-1.81l-10.36-10.362-29.147 11.465 11.151 11.151.147.527.19-.19-.19.19L34.06 48.307C43.388 44.677 50 35.612 50 25z" fill="#0091C8"/><path d="M22.572 28.643l11.298 8.53 5.703-24.345-29.146 11.465 8.869 2.938 16.186-10.858-12.91 12.27z" fill="#fff"/><path d="M19.296 27.23l2.429 8.741.847-7.328 12.91-12.27-16.186 10.858z" fill="#D2D2D7"/><path d="M26.244 31.415l-4.52 4.556.848-7.328 3.672 2.772z" fill="#B9B9BE"/></g><defs><clipPath id="clip0"><path fill="#fff" d="M0 0h50v50H0z"/></clipPath></defs></svg>