<svg width="50" height="50" fill="none" xmlns="http://www.w3.org/2000/svg"><g clip-path="url(#clip0)"><path d="M25 50c13.807 0 25-11.193 25-25S38.807 0 25 0 0 11.193 0 25s11.193 25 25 25z" fill="#75B73B"/><path d="M35.18 14.827c-1.45-.363-3.581-1.615-4.961-2.117-5.388-1.683-12.627-.336-14.647 5.893-.168.168-.505.168-.673.168-4.04 4.714-1.347 10.438-1.684 15.657-.115 1.84-1.082 3.466-2.327 4.842l10.477 10.466c1.187.173 2.4.264 3.635.264 12.347 0 22.603-8.952 24.633-20.719L35.18 14.827z" fill="#52891D"/><path d="M24.3 10.59c-7.62.363-13.633 6.709-13.61 14.337a14.246 14.246 0 001.558 6.455l-1.52 7.374c-.082.4.278.749.675.655l7.226-1.712a14.241 14.241 0 006.148 1.492c7.789.12 14.283-6.064 14.526-13.85.26-8.346-6.628-15.15-15.002-14.75zm8.623 22.216A11.132 11.132 0 0125 36.088c-1.752 0-3.43-.394-4.987-1.169l-1.006-.501-4.43 1.05.932-4.528-.496-.97a11.078 11.078 0 01-1.218-5.087c0-2.993 1.166-5.806 3.282-7.923A11.224 11.224 0 0125 13.68c2.993 0 5.807 1.165 7.923 3.281a11.132 11.132 0 013.281 7.923c0 2.966-1.184 5.826-3.281 7.923z" fill="#fff"/><path d="M31.945 27.986l-2.772-.795a1.034 1.034 0 00-1.022.27l-.678.69a1.01 1.01 0 01-1.098.232c-1.311-.531-4.07-2.984-4.773-4.21a1.01 1.01 0 01.08-1.12l.59-.765c.233-.3.282-.703.128-1.05l-1.166-2.637a1.034 1.034 0 00-1.614-.37c-.773.655-1.691 1.649-1.803 2.75-.196 1.943.637 4.39 3.786 7.33 3.638 3.396 6.552 3.845 8.45 3.385 1.075-.26 1.935-1.305 2.478-2.16a1.034 1.034 0 00-.586-1.55z" fill="#fff"/><path d="M34.766 14.425l-2.17 2.224a11.131 11.131 0 013.609 8.234c0 2.967-1.185 5.826-3.282 7.924A11.132 11.132 0 0125 36.088c-1.752 0-3.43-.393-4.987-1.168l-1.006-.502-4.43 1.05.091-.445-3.923 4.02a.557.557 0 00.658.368l7.226-1.712a14.24 14.24 0 006.148 1.493c7.789.119 14.283-6.065 14.526-13.85a14.274 14.274 0 00-4.537-10.917z" fill="#D1D1D1"/><path d="M31.945 27.987l-2.772-.796a1.034 1.034 0 00-1.022.27l-.678.69a1.01 1.01 0 01-1.098.232c-.757-.307-1.997-1.255-3.045-2.237l-1.927 1.975c.066.063.132.127.2.19 3.638 3.397 6.552 3.845 8.45 3.386 1.075-.261 1.935-1.306 2.478-2.161a1.034 1.034 0 00-.586-1.55z" fill="#D1D1D1"/></g><defs><clipPath id="clip0"><path fill="#fff" d="M0 0h50v50H0z"/></clipPath></defs></svg>